<svg xmlns="http://www.w3.org/2000/svg" width="39.998" height="36.284" viewBox="0 0 39.998 36.284">
  <g id="Groupe_3031" data-name="Groupe 3031" transform="translate(-618.943 -1523.432)">
    <path id="Vector" d="M29.818,5.251,19.189.517a7.514,7.514,0,0,0-5.477,0L3.083,5.251C.4,6.448,0,8.08,0,8.951s.4,2.5,3.083,3.7l10.628,4.734a6.956,6.956,0,0,0,2.739.526,6.956,6.956,0,0,0,2.739-.526l10.628-4.734c2.684-1.2,3.083-2.829,3.083-3.7S32.52,6.448,29.818,5.251Z" transform="translate(620.049 1523.432)" fill="#021b79"/>
    <path id="Vector-2" data-name="Vector" d="M17.557,12.315a5.131,5.131,0,0,1-2.013-.417L3.319,6.457A5.6,5.6,0,0,1,0,1.342a1.342,1.342,0,0,1,2.684,0A2.9,2.9,0,0,0,4.407,3.99L16.632,9.431a2.3,2.3,0,0,0,1.832,0L25.5,6.283c1.034-.453,2.723,1.774.71,2.681L19.552,11.9A4.978,4.978,0,0,1,17.557,12.315Z" transform="translate(618.943 1547.401)" fill="rgba(2,27,121,0.4)"/>
    <path id="Vector-3" data-name="Vector" d="M17.557,12.315a5.131,5.131,0,0,1-2.013-.417L3.319,6.457A5.978,5.978,0,0,1,0,1.342a1.342,1.342,0,0,1,2.684,0A3.292,3.292,0,0,0,4.407,3.99L16.632,9.431a2.3,2.3,0,0,0,1.832,0L28.3,5.018c.907-.4,2.523,1.876.655,2.71l-9.4,4.17A4.978,4.978,0,0,1,17.557,12.315Z" transform="translate(618.943 1538.404)" fill="rgba(2,27,121,0.4)"/>
    <path id="Union_2" data-name="Union 2" d="M7.183,14.364l-.159,0a.1.1,0,0,1-.05-.009A7.354,7.354,0,0,1,0,7.022.781.781,0,0,1,.387,6.35c.244-.132,1.023-.069,1.322,2.126A5.837,5.837,0,0,0,7.342,12.84a.779.779,0,0,1,.1.007l1.109-.211a5.84,5.84,0,0,0,4.284-5.453A5.839,5.839,0,0,0,8.478,1.709l.183.305A.764.764,0,1,1,7.35,2.8L6.363,1.159a.775.775,0,0,1-.01-.773A.781.781,0,0,1,7.024,0a7.355,7.355,0,0,1,7.328,6.869.771.771,0,0,1,.015.153c0,.054,0,.107,0,.161s0,.107,0,.161a.773.773,0,0,1-.015.153A7.356,7.356,0,0,1,7.493,14.35a.772.772,0,0,1-.151.015Z" transform="translate(640.239 1546.212) rotate(-22)" fill="#021b79"/>
  </g>
</svg>
