<svg xmlns="http://www.w3.org/2000/svg" xmlns:xlink="http://www.w3.org/1999/xlink" width="693.06" height="668" viewBox="0 0 693.06 668">
  <defs>
    <linearGradient id="linear-gradient" x1="0.414" y1="0.5" x2="0.42" y2="0.5" gradientUnits="objectBoundingBox">
      <stop offset="0" stop-color="#6d75e0"/>
      <stop offset="1" stop-color="#5761d7"/>
    </linearGradient>
    <linearGradient id="linear-gradient-2" y1="0.5" x2="1" y2="0.5" gradientUnits="objectBoundingBox">
      <stop offset="0" stop-color="#e9e9fd"/>
      <stop offset="0.36" stop-color="#d2d2f9"/>
      <stop offset="0.706" stop-color="#c4c3f6"/>
      <stop offset="1" stop-color="#c0bff6"/>
    </linearGradient>
    <linearGradient id="linear-gradient-3" x1="0.099" y1="-0.384" x2="0.893" y2="0.768" gradientUnits="objectBoundingBox">
      <stop offset="0" stop-color="#9494e0"/>
      <stop offset="1" stop-color="#0575e6"/>
    </linearGradient>
    <linearGradient id="linear-gradient-4" y1="0.5" x2="1" y2="0.5" gradientUnits="objectBoundingBox">
      <stop offset="0" stop-color="#f9f9f9"/>
      <stop offset="0.095" stop-color="#f0f0f0"/>
      <stop offset="0.427" stop-color="#d9d9d9"/>
      <stop offset="0.737" stop-color="#cacaca"/>
      <stop offset="1" stop-color="#c6c6c6"/>
    </linearGradient>
    <linearGradient id="linear-gradient-5" x1="2.486" y1="0.5" x2="2.492" y2="0.5" xlink:href="#linear-gradient"/>
    <linearGradient id="linear-gradient-9" x1="1.456" y1="0.5" x2="1.462" y2="0.5" xlink:href="#linear-gradient"/>
    <linearGradient id="linear-gradient-15" x1="0.5" y1="1" x2="0.5" gradientUnits="objectBoundingBox">
      <stop offset="0" stop-color="#021b79"/>
      <stop offset="0.5" stop-color="#0575e6"/>
      <stop offset="1" stop-color="#0575e6" stop-opacity="0"/>
    </linearGradient>
    <linearGradient id="linear-gradient-17" x1="0.113" y1="0.194" x2="0.87" y2="1.433" gradientUnits="objectBoundingBox">
      <stop offset="0.242" stop-color="#5761d7"/>
      <stop offset="0.392" stop-color="#7a81e5"/>
      <stop offset="0.546" stop-color="#979bf0"/>
      <stop offset="0.7" stop-color="#abaef8"/>
      <stop offset="0.852" stop-color="#b7bafd"/>
      <stop offset="1" stop-color="#bcbeff"/>
    </linearGradient>
    <clipPath id="clip-path">
      <path id="Tracé_3624" data-name="Tracé 3624" d="M370.935,277.244l-86.753-50.087c-10.16-5.863-10.16-15.407,0-21.273L370.932,155.8c10.158-5.863,26.684-5.863,36.842,0l86.756,50.087c10.155,5.863,10.158,15.407,0,21.27l-86.753,50.087C397.619,283.107,381.092,283.107,370.935,277.244Z" transform="translate(-276.561 -151.401)" fill="none"/>
    </clipPath>
  </defs>
  <g id="Groupe_2444" data-name="Groupe 2444" transform="translate(-276.561 -166.017)">
    <g id="Groupe_2395" data-name="Groupe 2395" transform="translate(385.288 543.065)">
      <path id="Tracé_3573" data-name="Tracé 3573" d="M519.569,429.057c-47.688,0-95.364-10.478-131.67-31.439-35.313-20.386-54.761-47.539-54.761-76.455s19.448-56.069,54.758-76.455c72.6-41.914,190.734-41.914,263.332,0,35.315,20.386,54.761,47.542,54.761,76.457s-19.445,56.066-54.758,76.452C614.936,418.576,567.248,429.057,519.569,429.057Zm-.011-214.286c-47.4,0-94.811,10.416-130.9,31.251-34.824,20.108-54,46.79-54,75.141S353.835,376.2,388.662,396.3c72.177,41.673,189.628,41.678,261.808,0,34.821-20.105,54-46.787,54-75.135s-19.179-55.036-54-75.144C614.377,225.19,566.967,214.771,519.558,214.771Z" transform="translate(-283.065 -184.374)" fill="#0575e6" opacity="0.4"/>
      <path id="Tracé_3574" data-name="Tracé 3574" d="M551.8,476.556c-60.509,0-121.007-13.293-167.075-39.893-44.771-25.848-69.426-60.259-69.429-96.9s24.655-71.049,69.424-96.9c92.122-53.189,242.02-53.192,334.147,0,44.771,25.845,69.429,60.259,69.429,96.9s-24.655,71.046-69.424,96.894C672.818,463.257,612.3,476.556,551.8,476.556Zm-.011-272.081c-60.231,0-120.457,13.237-166.309,39.708-44.28,25.567-68.663,59.51-68.663,95.583s24.386,70.016,68.668,95.583c91.707,52.948,240.922,52.945,332.624,0,44.283-25.567,68.666-59.51,68.666-95.58s-24.386-70.019-68.671-95.586C672.254,217.715,612.02,204.475,551.791,204.475Z" transform="translate(-315.298 -202.977)" fill="#0575e6" opacity="0.2"/>
      <path id="Tracé_3575" data-name="Tracé 3575" d="M494.174,391.639c-37.583,0-75.161-8.258-103.773-24.779-27.863-16.086-43.208-37.521-43.208-60.352s15.342-44.266,43.2-60.349c57.22-33.036,150.321-33.033,207.544,0,27.863,16.086,43.208,37.519,43.208,60.352s-15.342,44.263-43.2,60.352h0C569.338,383.382,531.752,391.637,494.174,391.639Zm-.011-168.759c-37.305,0-74.611,8.2-103.007,24.6-27.372,15.8-42.444,36.766-42.444,59.033s15.075,43.231,42.45,59.036c56.8,32.795,149.221,32.8,206.02,0h0c27.372-15.805,42.447-36.769,42.447-59.036s-15.078-43.23-42.45-59.036C568.776,231.079,531.468,222.88,494.163,222.88Z" transform="translate(-257.67 -169.72)" fill="#0575e6"/>
    </g>
    <g id="Groupe_2406" data-name="Groupe 2406" transform="translate(744.034 398.301)">
      <g id="Groupe_2398" data-name="Groupe 2398" transform="translate(0 131.74)" opacity="0.3">
        <path id="Tracé_3576" data-name="Tracé 3576" d="M668.7,244.179V224.523L663.26,221.5c-1.535,9.277-12.454,15.39-21.581,16.658l-62.162,36.351-27.131,9.8-86.593-44.687,2-1.156c-7.4-3.458-11.387-11.365-15.39-18.578l-5.83,3.475-3.464.974v20.159h0c0,3.851,2.54,7.7,7.618,10.635l86.756,50.087c10.158,5.863,26.684,5.863,36.842,0l86.753-50.087c5-2.883,7.534-6.658,7.615-10.447,0-.168-.006-.337-.011-.508Z" transform="translate(-443.11 -159.403)" fill="url(#linear-gradient)"/>
        <path id="Tracé_3577" data-name="Tracé 3577" d="M569.072,236.951,506.91,273.3,483.3,281.829v26.578c6.672,0,13.344-1.465,18.424-4.4l86.753-50.087c5-2.883,7.534-6.658,7.615-10.447,0-.168-.006-.337-.011-.508l.014.006V223.316l-4.971-2.762H590.6C588.9,229.682,578.113,235.694,569.072,236.951Z" transform="translate(-370.504 -158.196)" fill="#0f054c" opacity="0.25"/>
        <g id="Groupe_2396" data-name="Groupe 2396">
          <path id="Tracé_3578" data-name="Tracé 3578" d="M537.485,324.18l-86.756-50.088c-10.158-5.863-10.158-15.407,0-21.27l86.753-50.087c10.155-5.863,26.684-5.863,36.842,0l86.753,50.087c10.158,5.866,10.158,15.407,0,21.273L574.327,324.18C564.169,330.046,547.643,330.046,537.485,324.18Z" transform="translate(-443.111 -198.337)" fill="url(#linear-gradient-2)"/>
        </g>
        <g id="Groupe_2397" data-name="Groupe 2397">
          <path id="Tracé_3579" data-name="Tracé 3579" d="M537.485,324.18l-86.756-50.088c-10.158-5.863-10.158-15.407,0-21.27l86.753-50.087c10.155-5.863,26.684-5.863,36.842,0l86.753,50.087c10.158,5.866,10.158,15.407,0,21.273L574.327,324.18C564.169,330.046,547.643,330.046,537.485,324.18Z" transform="translate(-443.111 -198.337)" fill="#0f054c"/>
        </g>
      </g>
      <g id="Groupe_2405" data-name="Groupe 2405">
        <g id="Groupe_2404" data-name="Groupe 2404">
          <path id="Tracé_3580" data-name="Tracé 3580" d="M554.165,302.848a33.456,33.456,0,0,1-16.352-3.9l-86.756-50.09c-4.5-2.6-6.983-6.11-6.983-9.88s2.481-7.275,6.983-9.877l86.75-50.085c9.018-5.207,23.689-5.207,32.708,0L657.268,229.1c4.5,2.6,6.983,6.11,6.983,9.877s-2.481,7.278-6.983,9.88l-86.75,50.087A33.464,33.464,0,0,1,554.165,302.848Zm0-126.245a31.886,31.886,0,0,0-15.592,3.722l-86.75,50.087c-4.017,2.318-6.226,5.358-6.226,8.561s2.209,6.245,6.226,8.564l86.756,50.09c8.589,4.96,22.583,4.96,31.178,0L656.5,247.54c4.017-2.318,6.226-5.358,6.226-8.563s-2.209-6.242-6.226-8.561l-86.753-50.09A31.882,31.882,0,0,0,554.163,176.6Z" transform="translate(-441.37 -108.57)" fill="#0575e6"/>
          <g id="Groupe_2403" data-name="Groupe 2403">
            <path id="Tracé_3581" data-name="Tracé 3581" d="M668.7,213.123V183.416l-5.437-3.023c-1.535,9.276-12.454,15.387-21.581,16.658L579.516,233.4l-27.131,9.8-86.593-44.687,2-1.154c-7.4-3.458-11.387-11.368-15.39-18.581l-5.83,3.478-3.464.974v30.21h0c0,3.851,2.54,7.7,7.618,10.635l86.756,50.087c10.158,5.863,26.684,5.863,36.842,0l86.753-50.087c5-2.883,7.534-6.658,7.615-10.447,0-.168-.006-.34-.011-.508Z" transform="translate(-443.11 -101.94)" fill="#0575e6" opacity="0.4"/>
            <g id="Groupe_2402" data-name="Groupe 2402">
              <g id="Groupe_2401" data-name="Groupe 2401">
                <path id="Tracé_3582" data-name="Tracé 3582" d="M668.7,197.245V177.589l-5.437-3.023c-1.535,9.277-12.454,15.387-21.581,16.658l-62.162,36.351-27.131,9.8-86.593-44.687,2-1.154c-7.4-3.458-11.387-11.365-15.39-18.581l-5.83,3.478-3.464.974v20.158h0c0,3.851,2.54,7.7,7.618,10.635l86.756,50.087c10.158,5.863,26.684,5.863,36.842,0l86.753-50.087c5-2.883,7.534-6.658,7.615-10.447,0-.168-.006-.34-.011-.508Z" transform="translate(-443.11 -112.469)" opacity="0.8" fill="url(#linear-gradient-3)"/>
                <path id="Tracé_3583" data-name="Tracé 3583" d="M569.072,190.017,506.91,226.368,483.3,234.9v26.578c6.672,0,13.344-1.465,18.424-4.4l86.753-50.087c5-2.883,7.534-6.658,7.615-10.447,0-.168-.006-.34-.011-.508l.014.006V176.382l-4.971-2.765H590.6C588.9,182.747,578.113,188.76,569.072,190.017Z" transform="translate(-370.504 -111.262)" fill="#021b79" opacity="0.3"/>
                <g id="Groupe_2399" data-name="Groupe 2399">
                  <path id="Tracé_3584" data-name="Tracé 3584" d="M537.485,277.244l-86.756-50.087c-10.158-5.863-10.158-15.407,0-21.273L537.482,155.8c10.155-5.863,26.684-5.863,36.842,0l86.753,50.087c10.158,5.863,10.158,15.407,0,21.27l-86.753,50.087C564.169,283.107,547.643,283.107,537.485,277.244Z" transform="translate(-443.111 -151.401)" fill="url(#linear-gradient-4)"/>
                </g>
                <g id="Groupe_2400" data-name="Groupe 2400" transform="translate(0.007 66.344)">
                  <path id="Tracé_3585" data-name="Tracé 3585" d="M661.075,184.449l-86.753,50.087c-10.158,5.863-26.684,5.863-36.842,0l-86.756-50.087c-4.539-2.622-7.045-5.979-7.525-9.411-.6,4.249,1.909,8.617,7.525,11.862l86.756,50.087c10.158,5.863,26.684,5.863,36.842,0L661.075,186.9c5.616-3.242,8.12-7.612,7.525-11.859C668.117,178.474,665.614,181.83,661.075,184.449Z" transform="translate(-443.113 -175.038)" fill="#fff"/>
                </g>
              </g>
            </g>
          </g>
        </g>
      </g>
    </g>
    <g id="Groupe_2417" data-name="Groupe 2417" transform="translate(276.561 398.301)">
      <g id="Groupe_2409" data-name="Groupe 2409" transform="translate(0 131.74)" opacity="0.3">
        <path id="Tracé_3586" data-name="Tracé 3586" d="M502.147,244.179V224.523L496.71,221.5c-1.535,9.277-12.454,15.39-21.582,16.658l-62.162,36.351-27.128,9.8-86.6-44.687,2-1.156c-7.4-3.458-11.387-11.365-15.39-18.578l-5.83,3.475-3.464.974v20.159h0c0,3.851,2.54,7.7,7.62,10.635l86.753,50.087c10.158,5.863,26.684,5.863,36.842,0l86.753-50.087c5-2.883,7.534-6.658,7.615-10.447,0-.168,0-.337-.011-.508Z" transform="translate(-276.561 -159.403)" fill="url(#linear-gradient-5)"/>
        <path id="Tracé_3587" data-name="Tracé 3587" d="M402.522,236.951,340.36,273.3l-23.614,8.527v26.578c6.672,0,13.346-1.465,18.424-4.4l86.753-50.087c5-2.883,7.534-6.658,7.615-10.447,0-.168,0-.337-.011-.508l.014.006V223.316l-4.968-2.762h-.522C422.358,229.682,411.563,235.694,402.522,236.951Z" transform="translate(-203.954 -158.196)" fill="#0f054c" opacity="0.25"/>
        <g id="Groupe_2407" data-name="Groupe 2407">
          <path id="Tracé_3588" data-name="Tracé 3588" d="M370.935,324.18l-86.753-50.088c-10.16-5.863-10.16-15.407,0-21.27l86.753-50.087c10.158-5.863,26.684-5.863,36.842,0l86.756,50.087c10.155,5.866,10.158,15.407,0,21.273L407.777,324.18C397.619,330.046,381.092,330.046,370.935,324.18Z" transform="translate(-276.561 -198.337)" fill="url(#linear-gradient-2)"/>
        </g>
        <g id="Groupe_2408" data-name="Groupe 2408">
          <path id="Tracé_3589" data-name="Tracé 3589" d="M370.935,324.18l-86.753-50.088c-10.16-5.863-10.16-15.407,0-21.27l86.753-50.087c10.158-5.863,26.684-5.863,36.842,0l86.756,50.087c10.155,5.866,10.158,15.407,0,21.273L407.777,324.18C397.619,330.046,381.092,330.046,370.935,324.18Z" transform="translate(-276.561 -198.337)" fill="#0f054c"/>
        </g>
      </g>
      <g id="Groupe_2416" data-name="Groupe 2416">
        <g id="Groupe_2415" data-name="Groupe 2415">
          <path id="Tracé_3590" data-name="Tracé 3590" d="M387.615,302.848a33.449,33.449,0,0,1-16.353-3.9l-86.753-50.09c-4.5-2.6-6.986-6.11-6.986-9.88s2.481-7.275,6.986-9.877l86.75-50.085c9.018-5.207,23.687-5.207,32.7,0L490.718,229.1c4.5,2.6,6.983,6.11,6.983,9.877s-2.478,7.278-6.983,9.88l-86.75,50.087A33.464,33.464,0,0,1,387.615,302.848Zm-15.592-5.221c8.6,4.96,22.586,4.96,31.181,0l86.753-50.087c4.014-2.318,6.223-5.358,6.223-8.563s-2.209-6.242-6.223-8.561L403.2,180.325c-8.594-4.962-22.583-4.962-31.181,0l-86.753,50.087c-4.014,2.318-6.223,5.358-6.223,8.561s2.209,6.245,6.223,8.564Z" transform="translate(-274.821 -108.57)" fill="#0575e6"/>
          <g id="Groupe_2414" data-name="Groupe 2414">
            <path id="Tracé_3591" data-name="Tracé 3591" d="M502.147,213.123V183.416l-5.437-3.023c-1.535,9.276-12.454,15.387-21.582,16.658L412.966,233.4l-27.128,9.8-86.6-44.687,2-1.154c-7.4-3.458-11.387-11.368-15.39-18.581l-5.83,3.478-3.464.974v30.21h0c0,3.851,2.54,7.7,7.62,10.635l86.753,50.087c10.158,5.863,26.684,5.863,36.842,0l86.753-50.087c5-2.883,7.534-6.658,7.615-10.447,0-.168,0-.34-.011-.508Z" transform="translate(-276.561 -101.94)" fill="#0575e6" opacity="0.4"/>
            <g id="Groupe_2413" data-name="Groupe 2413">
              <g id="Groupe_2412" data-name="Groupe 2412">
                <path id="Tracé_3592" data-name="Tracé 3592" d="M502.147,197.245V177.589l-5.437-3.023c-1.535,9.277-12.454,15.387-21.582,16.658l-62.162,36.351-27.128,9.8-86.6-44.687,2-1.154c-7.4-3.458-11.387-11.365-15.39-18.581l-5.83,3.478-3.464.974v20.158h0c0,3.851,2.54,7.7,7.62,10.635l86.753,50.087c10.158,5.863,26.684,5.863,36.842,0l86.753-50.087c5-2.883,7.534-6.658,7.615-10.447,0-.168,0-.34-.011-.508Z" transform="translate(-276.561 -112.469)" opacity="0.8" fill="url(#linear-gradient-3)"/>
                <path id="Tracé_3593" data-name="Tracé 3593" d="M402.522,190.017,340.36,226.368,316.746,234.9v26.578c6.672,0,13.346-1.465,18.424-4.4l86.753-50.087c5-2.883,7.534-6.658,7.615-10.447,0-.168,0-.34-.011-.508l.014.006V176.382l-4.968-2.765h-.522C422.358,182.747,411.563,188.76,402.522,190.017Z" transform="translate(-203.954 -111.262)" fill="#021b79" opacity="0.3"/>
                <g id="Groupe_2410" data-name="Groupe 2410">
                  <path id="Tracé_3594" data-name="Tracé 3594" d="M370.935,277.244l-86.753-50.087c-10.16-5.863-10.16-15.407,0-21.273L370.932,155.8c10.158-5.863,26.684-5.863,36.842,0l86.756,50.087c10.155,5.863,10.158,15.407,0,21.27l-86.753,50.087C397.619,283.107,381.092,283.107,370.935,277.244Z" transform="translate(-276.561 -151.401)" fill="url(#linear-gradient-4)"/>
                </g>
                <g id="Groupe_2411" data-name="Groupe 2411" transform="translate(0.007 66.344)">
                  <path id="Tracé_3595" data-name="Tracé 3595" d="M494.525,184.449l-86.753,50.087c-10.158,5.863-26.684,5.863-36.842,0l-86.753-50.087c-4.541-2.622-7.045-5.979-7.528-9.411-.6,4.249,1.909,8.617,7.528,11.862l86.753,50.087c10.158,5.863,26.684,5.863,36.842,0L494.525,186.9c5.616-3.242,8.12-7.612,7.525-11.859C501.567,178.474,499.063,181.83,494.525,184.449Z" transform="translate(-276.563 -175.038)" fill="#fff"/>
                </g>
              </g>
            </g>
          </g>
        </g>
      </g>
    </g>
    <g id="Groupe_2429" data-name="Groupe 2429" transform="translate(509.001 542.504)">
      <g id="Groupe_2420" data-name="Groupe 2420" transform="translate(0 141.303)" opacity="0.3">
        <path id="Tracé_3596" data-name="Tracé 3596" d="M584.957,298.964V279.308l-5.434-3.023c-1.535,9.277-12.454,15.387-21.582,16.658l-62.162,36.351-27.131,9.8-86.593-44.687,2-1.156c-7.4-3.458-11.387-11.365-15.39-18.581l-5.83,3.478-3.464.974v20.158h0c0,3.851,2.54,7.7,7.618,10.635L453.747,360c10.155,5.863,26.684,5.863,36.842,0l86.75-50.087c5-2.883,7.536-6.658,7.618-10.447,0-.168-.006-.34-.011-.508Z" transform="translate(-359.373 -214.188)" fill="url(#linear-gradient-9)"/>
        <path id="Tracé_3597" data-name="Tracé 3597" d="M485.335,291.734l-62.162,36.351-23.614,8.527V363.19c6.672,0,13.343-1.465,18.424-4.4l86.75-50.087c5-2.883,7.536-6.658,7.618-10.447,0-.168-.006-.34-.011-.508l.011.006V278.1l-4.968-2.762h-.519C505.168,284.465,494.376,290.477,485.335,291.734Z" transform="translate(-286.767 -212.979)" fill="#0f054c" opacity="0.25"/>
        <g id="Groupe_2418" data-name="Groupe 2418">
          <path id="Tracé_3598" data-name="Tracé 3598" d="M453.748,378.963l-86.756-50.087c-10.158-5.863-10.158-15.406,0-21.273l86.75-50.085c10.158-5.863,26.687-5.863,36.845,0l86.753,50.087c10.158,5.866,10.158,15.407,0,21.273l-86.75,50.085C480.432,384.829,463.9,384.826,453.748,378.963Z" transform="translate(-359.374 -253.12)" fill="url(#linear-gradient-2)"/>
        </g>
        <g id="Groupe_2419" data-name="Groupe 2419">
          <path id="Tracé_3599" data-name="Tracé 3599" d="M453.748,378.963l-86.756-50.087c-10.158-5.863-10.158-15.406,0-21.273l86.75-50.085c10.158-5.863,26.687-5.863,36.845,0l86.753,50.087c10.158,5.866,10.158,15.407,0,21.273l-86.75,50.085C480.432,384.829,463.9,384.826,453.748,378.963Z" transform="translate(-359.374 -253.12)" fill="#0f054c"/>
        </g>
      </g>
      <g id="Groupe_2428" data-name="Groupe 2428">
        <g id="Groupe_2427" data-name="Groupe 2427">
          <path id="Tracé_3600" data-name="Tracé 3600" d="M470.426,354.224a33.453,33.453,0,0,1-16.349-3.9L367.32,300.232c-4.5-2.6-6.983-6.11-6.983-9.88s2.478-7.275,6.983-9.877l86.753-50.087c9.018-5.207,23.687-5.207,32.7,0l86.755,50.087c4.5,2.6,6.983,6.111,6.983,9.88s-2.481,7.278-6.981,9.877L486.778,350.32A33.45,33.45,0,0,1,470.426,354.224Zm0-126.242a31.872,31.872,0,0,0-15.586,3.722l-86.755,50.088c-4.014,2.318-6.223,5.358-6.223,8.561s2.209,6.245,6.223,8.564L454.839,349c8.592,4.96,22.583,4.96,31.178,0l86.753-50.087c4.014-2.316,6.226-5.355,6.226-8.561s-2.212-6.245-6.228-8.564L486.015,231.7A31.886,31.886,0,0,0,470.423,227.982Z" transform="translate(-357.633 -159.946)" fill="#0575e6"/>
          <g id="Groupe_2426" data-name="Groupe 2426">
            <path id="Tracé_3601" data-name="Tracé 3601" d="M584.957,264.5V234.79l-5.434-3.023c-1.535,9.277-12.454,15.39-21.582,16.658l-62.162,36.354-27.131,9.8-86.593-44.687,2-1.156c-7.4-3.455-11.387-11.365-15.39-18.578l-5.83,3.475-3.464.974v30.21h0c0,3.851,2.54,7.7,7.618,10.635l86.755,50.088c10.155,5.866,26.684,5.866,36.842,0l86.75-50.085c5-2.885,7.536-6.661,7.618-10.45,0-.168-.006-.337-.011-.505Z" transform="translate(-359.373 -153.315)" fill="#0575e6" opacity="0.4"/>
            <g id="Groupe_2425" data-name="Groupe 2425">
              <g id="Groupe_2424" data-name="Groupe 2424">
                <path id="Tracé_3602" data-name="Tracé 3602" d="M584.957,248.619V228.966l-5.434-3.026c-1.535,9.276-12.454,15.39-21.582,16.661l-62.162,36.351-27.131,9.8-86.593-44.687,2-1.156c-7.4-3.455-11.387-11.365-15.39-18.578l-5.83,3.478-3.464.971v20.159h0c0,3.851,2.54,7.7,7.618,10.635l86.755,50.087c10.155,5.866,26.684,5.866,36.842,0l86.75-50.085c5-2.885,7.536-6.661,7.618-10.45,0-.168-.006-.337-.011-.505Z" transform="translate(-359.373 -163.843)" opacity="0.8" fill="url(#linear-gradient-3)"/>
                <path id="Tracé_3603" data-name="Tracé 3603" d="M485.335,241.394l-62.162,36.351-23.614,8.527v26.575c6.672,0,13.343-1.465,18.424-4.4l86.75-50.085c5-2.885,7.536-6.66,7.618-10.45,0-.168-.006-.337-.011-.505l.011,0V227.759l-4.968-2.765h-.519C505.168,234.125,494.376,240.134,485.335,241.394Z" transform="translate(-286.767 -162.636)" fill="#021b79" opacity="0.3"/>
                <g id="Groupe_2421" data-name="Groupe 2421">
                  <path id="Tracé_3604" data-name="Tracé 3604" d="M453.748,328.622l-86.756-50.087c-10.158-5.866-10.158-15.409,0-21.273l86.75-50.087c10.158-5.863,26.687-5.863,36.845,0l86.753,50.087c10.158,5.863,10.158,15.407,0,21.27l-86.75,50.087C480.432,334.486,463.9,334.486,453.748,328.622Z" transform="translate(-359.374 -202.777)" fill="url(#linear-gradient-4)"/>
                </g>
                <g id="Groupe_2422" data-name="Groupe 2422" transform="translate(23.909 13.494)">
                  <path id="Tracé_3605" data-name="Tracé 3605" d="M456.775,310.839a30.2,30.2,0,0,1-14.769-3.528l-67.782-39.133c-4.081-2.358-6.329-5.541-6.332-8.965s2.251-6.613,6.332-8.971L442,211.113c8.143-4.7,21.4-4.707,29.544,0l67.776,39.132c4.087,2.355,6.332,5.541,6.332,8.968s-2.245,6.61-6.329,8.968l-67.776,39.13A30.2,30.2,0,0,1,456.775,310.839ZM442.766,306c7.721,4.454,20.3,4.454,28.02,0l67.779-39.133c3.593-2.074,5.571-4.794,5.571-7.651s-1.982-5.577-5.574-7.651L470.784,212.43c-7.724-4.457-20.3-4.454-28.02,0l-67.776,39.13c-3.6,2.074-5.574,4.794-5.574,7.654s1.979,5.574,5.574,7.649Z" transform="translate(-367.892 -207.585)" fill="#0575e6"/>
                </g>
                <g id="Groupe_2423" data-name="Groupe 2423" transform="translate(0.007 66.343)">
                  <path id="Tracé_3606" data-name="Tracé 3606" d="M577.335,235.828l-86.75,50.087c-10.158,5.863-26.687,5.863-36.842,0l-86.755-50.087c-4.539-2.622-7.045-5.979-7.525-9.414-.6,4.249,1.909,8.617,7.525,11.862l86.755,50.088c10.155,5.863,26.684,5.863,36.842,0l86.75-50.085c5.619-3.245,8.123-7.612,7.528-11.862C584.38,229.852,581.877,233.206,577.335,235.828Z" transform="translate(-359.376 -226.414)" fill="#fff"/>
                </g>
              </g>
            </g>
          </g>
        </g>
      </g>
    </g>
    <g id="Groupe_2441" data-name="Groupe 2441" transform="translate(509.001 166.017)">
      <g id="Groupe_2432" data-name="Groupe 2432" transform="translate(0 214.557)" opacity="0.3">
        <path id="Tracé_3607" data-name="Tracé 3607" d="M584.957,190.927V171.274l-5.434-3.026c-1.535,9.276-12.454,15.39-21.582,16.661L495.779,221.26l-27.131,9.8-86.593-44.687,2-1.156c-7.4-3.455-11.387-11.365-15.39-18.578l-5.83,3.478-3.464.971v20.158h0c0,3.854,2.54,7.7,7.618,10.635l86.755,50.087c10.155,5.866,26.684,5.866,36.842,0l86.75-50.085c5-2.885,7.536-6.661,7.618-10.447,0-.171-.006-.34-.011-.508Z" transform="translate(-359.373 -106.152)" fill="url(#linear-gradient-9)"/>
        <path id="Tracé_3608" data-name="Tracé 3608" d="M485.335,183.7l-62.162,36.351-23.614,8.527v26.575c6.672,0,13.343-1.465,18.424-4.4l86.75-50.085c5-2.885,7.536-6.661,7.618-10.447,0-.171-.006-.34-.011-.508l.011,0V170.067l-4.968-2.765h-.519C505.168,176.433,494.376,182.442,485.335,183.7Z" transform="translate(-286.767 -104.945)" fill="#0f054c" opacity="0.25"/>
        <g id="Groupe_2430" data-name="Groupe 2430">
          <path id="Tracé_3609" data-name="Tracé 3609" d="M453.748,270.93l-86.756-50.088c-10.158-5.866-10.158-15.409,0-21.273l86.75-50.085c10.158-5.866,26.687-5.866,36.845,0l86.753,50.087c10.158,5.863,10.158,15.406,0,21.27L490.59,270.93C480.432,276.793,463.9,276.793,453.748,270.93Z" transform="translate(-359.374 -145.085)" fill="url(#linear-gradient-2)"/>
        </g>
        <g id="Groupe_2431" data-name="Groupe 2431">
          <path id="Tracé_3610" data-name="Tracé 3610" d="M453.748,270.93l-86.756-50.088c-10.158-5.866-10.158-15.409,0-21.273l86.75-50.085c10.158-5.866,26.687-5.866,36.845,0l86.753,50.087c10.158,5.863,10.158,15.406,0,21.27L490.59,270.93C480.432,276.793,463.9,276.793,453.748,270.93Z" transform="translate(-359.374 -145.085)" fill="#0f054c"/>
        </g>
      </g>
      <g id="Groupe_2440" data-name="Groupe 2440" transform="translate(0 0)">
        <path id="Tracé_3622" data-name="Tracé 3622" d="M553.687,263.43V12.264H365.681l.011,251.166c-.031,1.018.763,2.044,2.4,2.818l85.766,40.659a15.444,15.444,0,0,0,11.663,0l85.765-40.656C552.924,265.474,553.717,264.451,553.687,263.43Z" transform="translate(-345.96 -12.264)" opacity="0.3" fill="url(#linear-gradient-15)"/>
        <g id="Groupe_2439" data-name="Groupe 2439" transform="translate(0 86.111)">
          <path id="Tracé_3611" data-name="Tracé 3611" d="M470.426,250.77a33.453,33.453,0,0,1-16.349-3.9l-86.756-50.09c-4.5-2.6-6.983-6.108-6.983-9.877s2.478-7.278,6.983-9.88l86.753-50.085c9.018-5.207,23.687-5.207,32.7,0l86.755,50.087c4.5,2.6,6.983,6.108,6.983,9.88s-2.481,7.278-6.981,9.877l-86.755,50.087A33.449,33.449,0,0,1,470.426,250.77Zm0-126.242a31.87,31.87,0,0,0-15.586,3.719l-86.755,50.087c-4.014,2.318-6.223,5.358-6.223,8.564s2.209,6.245,6.223,8.564l86.758,50.087c8.592,4.962,22.583,4.962,31.178,0l86.753-50.087C576.784,193.143,579,190.1,579,186.9s-2.212-6.248-6.228-8.566L486.015,128.25A31.854,31.854,0,0,0,470.423,124.528Z" transform="translate(-357.633 -56.492)" fill="#0575e6"/>
          <g id="Groupe_2438" data-name="Groupe 2438">
            <path id="Tracé_3612" data-name="Tracé 3612" d="M584.957,161.045V131.338l-5.434-3.023c-1.535,9.276-12.454,15.387-21.582,16.658l-62.162,36.351-27.131,9.8-86.593-44.687,2-1.154c-7.4-3.458-11.387-11.365-15.39-18.581l-5.83,3.478-3.464.974v30.21h0c0,3.851,2.54,7.7,7.618,10.635l86.755,50.087c10.155,5.863,26.684,5.863,36.842,0l86.75-50.087c5-2.883,7.536-6.658,7.618-10.447,0-.168-.006-.337-.011-.508Z" transform="translate(-359.373 -49.862)" fill="#0575e6" opacity="0.4"/>
            <g id="Groupe_2437" data-name="Groupe 2437">
              <g id="Groupe_2436" data-name="Groupe 2436">
                <path id="Tracé_3613" data-name="Tracé 3613" d="M584.957,145.165V125.509l-5.434-3.023c-1.535,9.276-12.454,15.39-21.582,16.658L495.779,175.5l-27.131,9.8-86.593-44.687,2-1.156c-7.4-3.458-11.387-11.365-15.39-18.578l-5.83,3.475-3.464.974v20.159h0c0,3.851,2.54,7.7,7.618,10.635L453.747,206.2c10.155,5.863,26.684,5.863,36.842,0l86.75-50.087c5-2.883,7.536-6.658,7.618-10.447,0-.168-.006-.337-.011-.508Z" transform="translate(-359.373 -60.389)" opacity="0.8" fill="url(#linear-gradient-3)"/>
                <path id="Tracé_3614" data-name="Tracé 3614" d="M485.335,137.937l-62.162,36.351-23.614,8.527v26.578c6.672,0,13.343-1.465,18.424-4.4l86.75-50.087c5-2.883,7.536-6.658,7.618-10.447,0-.168-.006-.337-.011-.508l.011.006V124.3l-4.968-2.762h-.519C505.168,130.668,494.376,136.68,485.335,137.937Z" transform="translate(-286.767 -59.182)" fill="#021b79" opacity="0.3"/>
                <path id="Tracé_3615" data-name="Tracé 3615" d="M378.075,175.353l82.209-47.463a13.057,13.057,0,0,1,11.8,0l80.774,46.635-.9.522c9.128-1.269,20.046-7.382,21.582-16.658L482.886,107.97,456.514,101l-21.478,12.622-72.351,43.152C366.688,163.989,370.673,171.9,378.075,175.353Z" transform="translate(-353.391 -96.292)" fill="url(#linear-gradient-17)"/>
                <path id="Tracé_3616" data-name="Tracé 3616" d="M466.183,103.555,456.514,101l-21.478,12.622-72.351,43.152c4,7.214,7.988,15.12,15.39,18.578l82.209-47.463a12.058,12.058,0,0,1,5.9-1.409Z" transform="translate(-353.391 -96.292)" fill="#0f054c" opacity="0.3"/>
                <g id="Groupe_2433" data-name="Groupe 2433">
                  <path id="Tracé_3617" data-name="Tracé 3617" d="M453.748,225.166l-86.756-50.087c-10.158-5.863-10.158-15.407,0-21.27l86.75-50.087c10.158-5.863,26.687-5.863,36.845,0l86.753,50.087c10.158,5.866,10.158,15.407,0,21.273l-86.75,50.085C480.432,231.032,463.9,231.032,453.748,225.166Zm24.315-114.215a13.056,13.056,0,0,0-11.8,0l-86.75,50.087c-3.253,1.878-3.253,4.932,0,6.809l86.753,50.087a13.056,13.056,0,0,0,11.8,0l86.753-50.085c3.25-1.878,3.25-4.934,0-6.812Z" transform="translate(-359.374 -99.323)" fill="url(#linear-gradient-2)"/>
                </g>
                <g id="Groupe_2434" data-name="Groupe 2434" transform="translate(0.007 10.22)">
                  <path id="Tracé_3618" data-name="Tracé 3618" d="M553.419,154.46l-86.755-50.087a13.056,13.056,0,0,0-11.8,0l-86.75,50.087c-2.17,1.252-2.885,3.029-2.158,4.628a5,5,0,0,1,2.158-2.181l86.75-50.085a13.056,13.056,0,0,1,11.8,0l86.755,50.087a5.035,5.035,0,0,1,2.159,2.181C556.3,157.489,555.588,155.715,553.419,154.46Z" transform="translate(-347.981 -102.964)" fill="#fff"/>
                  <path id="Tracé_3619" data-name="Tracé 3619" d="M577.335,132.374l-86.75,50.085c-10.158,5.866-26.687,5.866-36.842,0l-86.755-50.087c-4.539-2.622-7.045-5.976-7.525-9.411-.6,4.25,1.909,8.617,7.525,11.862l86.755,50.087c10.155,5.863,26.684,5.863,36.842,0l86.75-50.087c5.619-3.242,8.123-7.609,7.528-11.859C584.38,126.4,581.877,129.752,577.335,132.374Z" transform="translate(-359.376 -66.836)" fill="#fff"/>
                </g>
                <g id="Groupe_2435" data-name="Groupe 2435" transform="translate(3.463 2)">
                  <path id="Tracé_3620" data-name="Tracé 3620" d="M453.966,222.464l-86.753-50.087c-8.808-5.083-8.808-13.358,0-18.441l86.75-50.087c8.808-5.083,23.136-5.083,31.944,0l86.753,50.087c8.808,5.086,8.808,13.358,0,18.444l-86.75,50.085C477.1,227.55,462.774,227.55,453.966,222.464Zm24.318-114.215c-4.6-2.658-12.095-2.658-16.7,0l-86.75,50.087c-4.6,2.658-4.6,6.981,0,9.639l86.753,50.087c4.6,2.658,12.095,2.658,16.7,0l86.753-50.085c4.6-2.658,4.6-6.983,0-9.641Z" transform="translate(-360.608 -100.036)" fill="url(#linear-gradient-4)"/>
                </g>
              </g>
              <path id="Tracé_3621" data-name="Tracé 3621" d="M466.668,104.373a13.056,13.056,0,0,0-11.8,0l-86.75,50.087c-3.253,1.878-3.253,4.932,0,6.809l86.753,50.087a13.057,13.057,0,0,0,11.8,0l86.753-50.085c3.25-1.878,3.25-4.934,0-6.812Z" transform="translate(-347.978 -92.745)" fill="#397bff" opacity="0.4"/>
            </g>
          </g>
        </g>
      </g>
    </g>
    <g id="Groupe_2443" data-name="Groupe 2443" transform="translate(276.561 398.301)" opacity="0.2">
      <g id="Groupe_2442" data-name="Groupe 2442" clip-path="url(#clip-path)">
        <path id="Tracé_3623" data-name="Tracé 3623" d="M328.6,312.889a28.6,28.6,0,0,0,17.725-3.076c4.014-2.318,6.021-5.3,5.914-8.109h0V198.029l-23.218-8.982H328.6Z" transform="translate(-182.545 -83.383)" fill="#24126a" opacity="0.3"/>
      </g>
    </g>
  </g>
</svg>
