<svg xmlns="http://www.w3.org/2000/svg" width="36.3" height="36.283" viewBox="0 0 36.3 36.283">
  <g id="Groupe_3032" data-name="Groupe 3032" transform="translate(-144.934 -654.9)">
    <path id="Vector" d="M32.285,4.015A13.749,13.749,0,0,0,9.44,17.806L.912,26.334a3.656,3.656,0,0,0-.889,2.7l.544,3.956a3.425,3.425,0,0,0,2.722,2.722l3.956.544a3.525,3.525,0,0,0,2.7-.907l1.488-1.488a.9.9,0,0,0,0-1.288l-3.52-3.52a1.36,1.36,0,1,1,1.923-1.923l3.538,3.538a.909.909,0,0,0,1.27,0l3.847-3.829A13.733,13.733,0,0,0,32.285,4.015Zm-9.6,14.118A4.536,4.536,0,1,1,27.223,13.6,4.538,4.538,0,0,1,22.686,18.132Z" transform="translate(144.934 654.9)" fill="rgba(15,32,135,0.4)"/>
    <path id="Vector-2" data-name="Vector" d="M7.346,3.673A3.673,3.673,0,1,1,3.673,0,3.673,3.673,0,0,1,7.346,3.673Z" transform="translate(164.148 664.623)" fill="#0f2087"/>
  </g>
</svg>
