<svg xmlns="http://www.w3.org/2000/svg" width="512.021" height="512.885" viewBox="0 0 512.021 512.885">
  <path id="sun-solid" d="M256,159.1a95.038,95.038,0,0,0-95.1,95.1c0,52.12,41.2,96.9,95.1,96.9s95.1-42.98,95.1-95.1S309,159.1,256,159.1ZM509.3,347l-63.2-91.9,63.15-91.01a15.264,15.264,0,0,0-9.826-23.72l-109-19.7-19.7-109A15.26,15.26,0,0,0,347,1.846L256,65.89,164.1,2.736a15.263,15.263,0,0,0-23.72,9.824L121.6,121.6,12.56,141.3C1.633,143.2-3.6,155.9,2.736,164.1L65.89,256,2.74,347.01a15.264,15.264,0,0,0,9.824,23.72l109,19.7,19.7,109a15.26,15.26,0,0,0,23.72,9.824L256,446.1l91.01,63.15a15.26,15.26,0,0,0,23.72-9.822l19.7-109,109-19.7A15.279,15.279,0,0,0,509.3,347ZM256,383.1a127.1,127.1,0,0,1,0-254.2c69.79,0,127.1,57.3,127.1,127.1A126.459,126.459,0,0,1,256,383.1Z" transform="translate(0 0.893)" fill="#f3f3f3"/>
</svg>
