<svg xmlns="http://www.w3.org/2000/svg" width="28.385" height="28.385" viewBox="0 0 28.385 28.385">
  <g id="Groupe_3027" data-name="Groupe 3027" transform="translate(-1676 -519)">
    <path id="Path" d="M23.546.83a2.835,2.835,0,0,1,4.2,3.793l-.195.215L4.839,27.554a2.835,2.835,0,0,1-4.2-3.793l.195-.215Z" transform="translate(1676 519)" fill="#4364f7"/>
    <path id="Path-2" data-name="Path" d="M.83.83A2.835,2.835,0,0,1,4.624.636L4.839.83,27.554,23.546a2.835,2.835,0,0,1-3.793,4.2l-.215-.195L.83,4.839A2.835,2.835,0,0,1,.83.83Z" transform="translate(1676 519)" fill="#4364f7"/>
  </g>
</svg>
