<svg xmlns="http://www.w3.org/2000/svg" xmlns:xlink="http://www.w3.org/1999/xlink" width="812" height="669.612" viewBox="0 0 812 669.612">
  <defs>
    <linearGradient id="linear-gradient" x1="0.5" y1="1" x2="0.5" gradientUnits="objectBoundingBox">
      <stop offset="0" stop-color="#0575e6"/>
      <stop offset="0.255" stop-color="#021b79"/>
      <stop offset="1" stop-color="#021b79" stop-opacity="0"/>
    </linearGradient>
    <linearGradient id="linear-gradient-2" x1="0.107" y1="-0.457" x2="0.885" y2="0.782" gradientUnits="objectBoundingBox">
      <stop offset="0" stop-color="#bcbeff"/>
      <stop offset="0.227" stop-color="#aaadf7"/>
      <stop offset="0.68" stop-color="#7b82e5"/>
      <stop offset="1" stop-color="#5761d7"/>
    </linearGradient>
    <linearGradient id="linear-gradient-3" y1="0.5" x2="1" y2="0.5" gradientUnits="objectBoundingBox">
      <stop offset="0" stop-color="#e9e9fd"/>
      <stop offset="0.36" stop-color="#d2d2f9"/>
      <stop offset="0.706" stop-color="#c4c3f6"/>
      <stop offset="1" stop-color="#c0bff6"/>
    </linearGradient>
    <radialGradient id="radial-gradient" cx="0.492" cy="1.09" r="1.516" gradientTransform="translate(0.211) scale(0.577 1)" gradientUnits="objectBoundingBox">
      <stop offset="0" stop-color="#42e8e0"/>
      <stop offset="0.08" stop-color="#3ac4c8"/>
      <stop offset="0.206" stop-color="#2e92a8"/>
      <stop offset="0.336" stop-color="#24668b"/>
      <stop offset="0.466" stop-color="#1d4374"/>
      <stop offset="0.597" stop-color="#162862"/>
      <stop offset="0.729" stop-color="#121456"/>
      <stop offset="0.862" stop-color="#0f084e"/>
      <stop offset="1" stop-color="#0f054c"/>
    </radialGradient>
    <radialGradient id="radial-gradient-2" cx="0.492" cy="1.09" r="2.681" gradientTransform="translate(0.337) scale(0.325 1)" xlink:href="#radial-gradient"/>
    <linearGradient id="linear-gradient-4" x1="0.083" y1="-0.203" x2="0.898" y2="0.803" xlink:href="#linear-gradient-2"/>
    <linearGradient id="linear-gradient-5" x1="0.083" y1="-0.203" x2="0.898" y2="0.803" gradientUnits="objectBoundingBox">
      <stop offset="0" stop-color="#706ec4"/>
      <stop offset="0.022" stop-color="#6d6bc1"/>
      <stop offset="0.251" stop-color="#5651ac"/>
      <stop offset="0.486" stop-color="#463e9d"/>
      <stop offset="0.731" stop-color="#3c3393"/>
      <stop offset="1" stop-color="#393091"/>
    </linearGradient>
    <linearGradient id="linear-gradient-13" x1="0.083" y1="-0.203" x2="0.898" y2="0.803" xlink:href="#linear-gradient-2"/>
    <linearGradient id="linear-gradient-14" x1="0.083" y1="-0.203" x2="0.898" y2="0.803" xlink:href="#linear-gradient-5"/>
    <radialGradient id="radial-gradient-3" cx="0.492" cy="1.09" r="2.681" gradientTransform="translate(0.337) scale(0.325 1)" xlink:href="#radial-gradient"/>
    <linearGradient id="linear-gradient-24" x1="0.099" y1="-0.384" x2="0.893" y2="0.768" xlink:href="#linear-gradient-2"/>
    <linearGradient id="linear-gradient-32" y1="0.5" x2="1" y2="0.5" gradientUnits="objectBoundingBox">
      <stop offset="0" stop-color="#5761d7"/>
      <stop offset="0.073" stop-color="#5471d8"/>
      <stop offset="0.279" stop-color="#4d9bda"/>
      <stop offset="0.48" stop-color="#48bddd"/>
      <stop offset="0.672" stop-color="#44d4de"/>
      <stop offset="0.849" stop-color="#42e3df"/>
      <stop offset="1" stop-color="#42e8e0"/>
    </linearGradient>
    <linearGradient id="linear-gradient-36" y1="0.5" x2="1" y2="0.5" gradientUnits="objectBoundingBox">
      <stop offset="0" stop-color="#0575e6"/>
      <stop offset="1" stop-color="#021b79"/>
    </linearGradient>
  </defs>
  <g id="Groupe_1326" data-name="Groupe 1326" transform="translate(-209.578 -66.675)">
    <path id="Tracé_106" data-name="Tracé 106" d="M561.769,66.675H355.627V265.963h0c0,3.52,2.322,7.038,6.962,9.718l79.277,45.771c9.281,5.359,24.385,5.359,33.667,0l79.275-45.768c4.642-2.68,6.962-6.2,6.962-9.72h0Z" transform="translate(174.486 0)" opacity="0.5" fill="url(#linear-gradient)"/>
    <g id="Groupe_1219" data-name="Groupe 1219" transform="translate(255.221 299.853)" opacity="0.13">
      <g id="Groupe_1218" data-name="Groupe 1218" opacity="0.24">
        <path id="Tracé_107" data-name="Tracé 107" d="M608.343,609.355,230.375,391.134,608.332,172.921,986.3,391.141Z" transform="translate(-230.375 -172.921)" fill="#021b79"/>
      </g>
    </g>
    <g id="Groupe_1221" data-name="Groupe 1221" transform="translate(313.838 333.695)" opacity="0.13">
      <g id="Groupe_1220" data-name="Groupe 1220">
        <path id="Tracé_108" data-name="Tracé 108" d="M576.433,557.089,257.083,372.712,576.424,188.341,895.775,372.718Z" transform="translate(-257.083 -188.341)" fill="#021b79"/>
      </g>
    </g>
    <g id="Groupe_1222" data-name="Groupe 1222" transform="translate(381.946 373.017)" opacity="0.13">
      <path id="Tracé_109" data-name="Tracé 109" d="M539.357,496.362,288.116,351.308,539.35,206.258,790.591,351.312Z" transform="translate(-288.116 -206.258)" fill="#021b79"/>
    </g>
    <g id="Groupe_1287" data-name="Groupe 1287" transform="translate(435.012 151.548)">
      <path id="Tracé_110" data-name="Tracé 110" d="M507.457,444.186c-10.26,0-20.523-2.254-28.336-6.766l-152.422-88c-7.662-4.422-11.88-10.346-11.882-16.678s4.22-12.253,11.88-16.675l152.418-88c15.622-9.022,41.048-9.022,56.672,0l152.424,88c7.66,4.425,11.88,10.346,11.88,16.678s-4.22,12.253-11.88,16.675l-152.42,88C527.98,441.932,517.718,444.186,507.457,444.186Zm-.007-221.8c-10.065,0-20.125,2.21-27.787,6.632l-152.418,88c-7.306,4.218-11.329,9.8-11.329,15.725s4.025,11.507,11.331,15.725l152.422,88c15.326,8.849,40.258,8.847,55.572,0l152.42-88c7.3-4.218,11.329-9.8,11.329-15.723s-4.023-11.507-11.329-15.725l-152.424-88C527.576,224.595,517.513,222.385,507.451,222.385Z" transform="translate(-309.282 33.183)" fill="#397bff"/>
      <g id="Groupe_1286" data-name="Groupe 1286" transform="translate(0 0)">
        <g id="Groupe_1235" data-name="Groupe 1235" transform="translate(0 186.159)">
          <g id="Groupe_1234" data-name="Groupe 1234">
            <g id="Groupe_1233" data-name="Groupe 1233">
              <g id="Groupe_1232" data-name="Groupe 1232">
                <path id="Tracé_111" data-name="Tracé 111" d="M708.639,269.366v-17.76l-9.551,4.363c3.6-21.756-28.178,27.914-37.918,29.269L551.953,349.106l-47.665,3.27-152.141-64.57,3.516-2.03c-13-6.073-20.007-19.97-27.039-32.644l-10.243,6.108-6.086-7.08v17.76h0c0,6.766,4.464,13.533,13.385,18.684l152.424,88c17.845,10.3,46.883,10.3,64.731,0l152.418-88c8.779-5.068,13.238-11.7,13.381-18.354.006-.3-.007-.595-.018-.893Z" transform="translate(-312.295 -118.132)" fill="#42e8e0" opacity="0.4"/>
                <g id="Groupe_1231" data-name="Groupe 1231">
                  <g id="Groupe_1230" data-name="Groupe 1230">
                    <path id="Tracé_112" data-name="Tracé 112" d="M708.639,267.331V246.738l-9.551-5.313c-2.7,16.3-21.881,27.039-37.918,29.271L551.953,334.564l-47.665,17.211L352.146,273.261l3.516-2.03c-13-6.073-20.007-19.967-27.039-32.644l-10.243,6.11-6.086,1.71v21.475h0c0,6.766,4.464,13.535,13.385,18.686l152.424,88c17.845,10.3,46.883,10.3,64.731,0l152.418-88c8.779-5.068,13.238-11.7,13.381-18.357.006-.3-.007-.595-.018-.891Z" transform="translate(-312.295 -132.323)" fill="url(#linear-gradient-2)"/>
                    <path id="Tracé_113" data-name="Tracé 113" d="M708.639,267.331V246.738l-9.551-5.313c-2.7,16.3-21.881,27.039-37.918,29.271L551.953,334.564l-47.665,17.211L352.146,273.261l3.516-2.03c-13-6.073-20.007-19.967-27.039-32.644l-10.243,6.11-6.086,1.71v21.475h0c0,6.766,4.464,13.535,13.385,18.686l152.424,88c17.845,10.3,46.883,10.3,64.731,0l152.418-88c8.779-5.068,13.238-11.7,13.381-18.357.006-.3-.007-.595-.018-.891Z" transform="translate(-312.295 -132.323)" fill="#021b79"/>
                    <path id="Tracé_114" data-name="Tracé 114" d="M553.294,268.9,444.077,332.769,402.59,347.75V380.5c11.722,0,23.446-2.574,32.37-7.728l152.418-88c8.779-5.068,13.239-11.7,13.381-18.357.006-.3-.007-.595-.018-.891l.022,13.95V244.944l-8.731-4.855h-.913C588.141,256.128,569.179,266.689,553.294,268.9Z" transform="translate(-204.419 -130.529)" fill="#021b79"/>
                    <g id="Groupe_1223" data-name="Groupe 1223">
                      <path id="Tracé_115" data-name="Tracé 115" d="M478.105,411.271l-152.424-88c-17.847-10.3-17.847-27.07,0-37.374l152.418-88c17.845-10.3,46.885-10.3,64.733,0l152.422,88c17.845,10.3,17.848,27.067,0,37.371l-152.418,88C524.988,421.575,495.95,421.575,478.105,411.271Z" transform="translate(-312.295 -190.169)" fill="url(#linear-gradient-3)"/>
                    </g>
                    <g id="Groupe_1224" data-name="Groupe 1224" transform="translate(95.102 54.907)">
                      <path id="Tracé_116" data-name="Tracé 116" d="M441.865,330.184l-79.277-45.771c-9.281-5.36-9.281-14.079,0-19.439l79.275-45.768c9.281-5.359,24.383-5.359,33.667,0l79.277,45.771c9.281,5.359,9.281,14.079,0,19.438l-79.275,45.768C466.251,335.543,451.147,335.543,441.865,330.184Z" transform="translate(-355.627 -215.187)" fill="#0f054c"/>
                    </g>
                    <g id="Groupe_1225" data-name="Groupe 1225" transform="translate(95.102 54.907)" style="mix-blend-mode: lighten;isolation: isolate">
                      <path id="Tracé_117" data-name="Tracé 117" d="M441.865,330.184l-79.277-45.771c-9.281-5.36-9.281-14.079,0-19.439l79.275-45.768c9.281-5.359,24.383-5.359,33.667,0l79.277,45.771c9.281,5.359,9.281,14.079,0,19.438l-79.275,45.768C466.251,335.543,451.147,335.543,441.865,330.184Z" transform="translate(-355.627 -215.187)" fill="url(#radial-gradient)"/>
                    </g>
                    <path id="Tracé_118" data-name="Tracé 118" d="M359.531,282.247a19.2,19.2,0,0,1,3.057-2.166l79.275-45.768c9.281-5.359,24.383-5.359,33.667,0l79.277,45.771a19.193,19.193,0,0,1,3.057,2.166c6.077-5.331,5.059-12.587-3.057-17.272L475.53,219.206c-9.284-5.359-24.385-5.359-33.667,0l-79.275,45.768C354.472,269.66,353.454,276.916,359.531,282.247Z" transform="translate(-260.526 -160.28)" fill="url(#radial-gradient-2)"/>
                    <g id="Groupe_1226" data-name="Groupe 1226" transform="translate(8.884 4.956)">
                      <path id="Tracé_119" data-name="Tracé 119" d="M505.632,411.345c-11.248,0-22.5-2.471-31.057-7.414L329.314,320.065c-8.362-4.828-12.971-11.287-12.971-18.181s4.607-13.35,12.969-18.179l145.257-83.864c17.127-9.887,44.991-9.885,62.119,0L681.948,283.71c8.364,4.828,12.971,11.285,12.971,18.179s-4.607,13.35-12.971,18.179L536.694,403.931C528.128,408.874,516.88,411.345,505.632,411.345ZM475,403.189c16.89,9.751,44.373,9.751,61.261,0L681.52,319.325c8.09-4.67,12.543-10.862,12.543-17.437s-4.453-12.769-12.543-17.439L536.259,200.585c-16.89-9.753-44.373-9.753-61.263,0L329.742,284.445c-8.09,4.67-12.543,10.864-12.543,17.439s4.455,12.769,12.545,17.439Z" transform="translate(-316.343 -192.427)" fill="#5351af"/>
                    </g>
                    <g id="Groupe_1227" data-name="Groupe 1227" transform="translate(52.078 29.891)">
                      <path id="Tracé_120" data-name="Tracé 120" d="M482.119,372.835c-8.693,0-17.384-1.912-24-5.733l-112.04-64.685c-6.481-3.744-10.052-8.752-10.052-14.105s3.569-10.363,10.052-14.108L458.111,209.52c13.236-7.642,34.773-7.642,48.009,0l112.04,64.687c6.483,3.744,10.052,8.753,10.052,14.108s-3.571,10.361-10.052,14.105L506.125,367.1C499.505,370.923,490.812,372.835,482.119,372.835Zm0-168.2c-8.537,0-17.077,1.876-23.576,5.629L346.5,274.946c-6.207,3.584-9.624,8.331-9.624,13.366s3.417,9.782,9.624,13.364l112.04,64.685c13,7.506,34.152,7.506,47.151,0L617.73,301.678c6.207-3.582,9.626-8.329,9.626-13.364s-3.419-9.782-9.626-13.366L505.692,210.262C499.192,206.509,490.652,204.632,482.115,204.632Z" transform="translate(-336.024 -203.789)" fill="#5351af"/>
                    </g>
                    <g id="Groupe_1228" data-name="Groupe 1228" transform="translate(95.102 54.907)" opacity="0.4">
                      <path id="Tracé_121" data-name="Tracé 121" d="M441.865,330.184l-79.277-45.771c-9.281-5.36-9.281-14.079,0-19.439l79.275-45.768c9.281-5.359,24.383-5.359,33.667,0l79.277,45.771c9.281,5.359,9.281,14.079,0,19.438l-79.275,45.768C466.251,335.543,451.147,335.543,441.865,330.184Z" transform="translate(-355.627 -215.187)" fill="#42e8e0"/>
                    </g>
                    <g id="Groupe_1229" data-name="Groupe 1229" transform="translate(0.012 116.564)">
                      <path id="Tracé_122" data-name="Tracé 122" d="M695.247,259.819l-152.418,88c-17.847,10.3-46.885,10.3-64.731,0l-152.424-88c-7.978-4.607-12.378-10.5-13.223-16.537-1.047,7.466,3.353,15.141,13.223,20.839l152.424,88c17.845,10.3,46.883,10.3,64.731,0l152.418-88c9.87-5.7,14.27-13.372,13.223-20.837C707.623,249.318,703.225,255.215,695.247,259.819Z" transform="translate(-312.3 -243.28)" fill="#fff"/>
                    </g>
                  </g>
                </g>
              </g>
            </g>
          </g>
        </g>
        <path id="Tracé_123" data-name="Tracé 123" d="M695.253,258.784l-152.422-88c-17.847-10.3-46.888-10.3-64.733,0l-152.418,88c-17.847,10.3-17.847,27.067,0,37.371l152.424,88c17.845,10.3,46.883,10.3,64.731,0l152.418-88C713.1,285.854,713.1,269.088,695.253,258.784Z" transform="translate(-312.295 -36.403)" fill="#42e8e0" opacity="0.4"/>
        <g id="Groupe_1280" data-name="Groupe 1280" transform="translate(134.087 81.642)">
          <g id="Groupe_1279" data-name="Groupe 1279">
            <g id="Groupe_1278" data-name="Groupe 1278">
              <path id="Tracé_124" data-name="Tracé 124" d="M433.854,297.556c-8.221,0-16.438-1.806-22.693-5.417l0,0-26.233-15.321c-6.132-3.54-9.51-8.281-9.507-13.35s3.378-9.808,9.507-13.348l28.632-16.853c12.51-7.227,32.87-7.227,45.389,0l26.236,15.321c6.132,3.538,9.51,8.281,9.51,13.348s-3.378,9.808-9.51,13.348L456.55,292.138C450.293,295.75,442.073,297.556,433.854,297.556ZM411.591,291.4c12.279,7.087,32.253,7.085,44.528,0l28.632-16.858c5.86-3.382,9.086-7.859,9.086-12.609s-3.228-9.227-9.086-12.609L458.516,234c-12.273-7.084-32.251-7.087-44.528,0l-28.63,16.855c-5.86,3.382-9.086,7.861-9.088,12.609s3.228,9.229,9.086,12.611Z" transform="translate(-370.969 -40.64)" fill="#42e8e0"/>
              <g id="Groupe_1242" data-name="Groupe 1242" transform="translate(0 132.455)">
                <path id="Tracé_125" data-name="Tracé 125" d="M501.56,241.2V226.976l-7.653,3.494c2.884-17.428-22.573,22.362-30.375,23.448l5.976-2.473-38.183,2.62-26.009,3.448,2.818-1.626c-10.416-4.866-16.028-16-21.662-26.15l-8.206,4.892-4.874-5.671v14.226h0c0,5.421,3.575,10.842,10.723,14.968l26.233,15.321c14.3,8.254,37.56,8.254,51.857,0l28.632-16.858c7.034-4.06,10.607-9.371,10.721-14.7,0-.239-.007-.476-.015-.715Z" transform="translate(-373.39 -175.226)" fill="#42e8e0" opacity="0.4"/>
                <g id="Groupe_1240" data-name="Groupe 1240">
                  <g id="Groupe_1239" data-name="Groupe 1239">
                    <path id="Tracé_126" data-name="Tracé 126" d="M501.56,238.733v-16.5l-7.653-4.256c-2.16,13.056-17.527,21.66-30.375,23.448l5.976-2.473-38.183,13.787-26.009-7.719,2.818-1.626c-10.416-4.866-16.028-16-21.662-26.152l-8.206,4.894-4.874,1.369v17.2h0c0,5.421,3.575,10.842,10.723,14.97L410.348,271c14.3,8.254,37.56,8.257,51.857,0l28.632-16.857c7.034-4.06,10.607-9.371,10.721-14.7,0-.239-.007-.476-.015-.715Z" transform="translate(-373.39 -185.756)" fill="url(#linear-gradient-4)"/>
                    <path id="Tracé_127" data-name="Tracé 127" d="M501.56,238.733v-16.5l-7.653-4.256c-2.16,13.056-17.527,21.66-30.375,23.448l5.976-2.473-38.183,13.787-26.009-7.719,2.818-1.626c-10.416-4.866-16.028-16-21.662-26.152l-8.206,4.894-4.874,1.369v17.2h0c0,5.421,3.575,10.842,10.723,14.97L410.348,271c14.3,8.254,37.56,8.257,51.857,0l28.632-16.857c7.034-4.06,10.607-9.371,10.721-14.7,0-.239-.007-.476-.015-.715Z" transform="translate(-373.39 -185.756)" fill="url(#linear-gradient-5)"/>
                    <path id="Tracé_128" data-name="Tracé 128" d="M429.3,240.832l5.976-2.473-33.234,12V276.6c9.391,0,18.782-2.063,25.93-6.191l28.632-16.858c7.034-4.06,10.607-9.371,10.721-14.7,0-.239-.007-.476-.015-.716l.018,11.175V221.639l-6.992-3.891H459.6C457.218,230.6,442.026,239.059,429.3,240.832Z" transform="translate(-339.16 -185.157)" fill="#0f054c" opacity="0.3"/>
                    <g id="Groupe_1236" data-name="Groupe 1236">
                      <path id="Tracé_129" data-name="Tracé 129" d="M410.348,271.208l-26.233-15.321c-14.3-8.254-14.3-21.684,0-29.94l28.634-16.858c14.3-8.254,37.558-8.254,51.856,0l26.233,15.321c14.3,8.254,14.3,21.686,0,29.94L462.2,271.208C447.908,279.462,424.644,279.462,410.348,271.208Z" transform="translate(-373.391 -202.898)" fill="url(#linear-gradient-3)"/>
                    </g>
                    <g id="Groupe_1237" data-name="Groupe 1237" transform="translate(7.386 4.156)">
                      <path id="Tracé_130" data-name="Tracé 130" d="M432.4,270.982c-8.32,0-16.638-1.828-22.972-5.487h0l-23.071-13.471c-6.189-3.573-9.6-8.355-9.6-13.462s3.408-9.887,9.6-13.46l25.178-14.825c12.67-7.315,33.281-7.313,45.951,0l23.068,13.473c6.189,3.573,9.6,8.353,9.6,13.46s-3.406,9.885-9.6,13.458L455.377,265.5C449.041,269.152,440.721,270.982,432.4,270.982Zm-22.63-6.077c12.481,7.2,32.785,7.2,45.259,0l25.178-14.825c5.972-3.45,9.259-8.019,9.259-12.868s-3.288-9.422-9.259-12.87l-23.071-13.473c-12.472-7.2-32.78-7.2-45.259,0L386.7,225.692c-5.974,3.45-9.262,8.019-9.262,12.87s3.29,9.422,9.262,12.87Z" transform="translate(-376.756 -204.792)" fill="#5351af"/>
                    </g>
                    <g id="Groupe_1238" data-name="Groupe 1238" transform="translate(0.01 38.207)">
                      <path id="Tracé_131" data-name="Tracé 131" d="M490.831,233.552,462.2,250.41c-14.3,8.254-37.56,8.254-51.856,0L384.11,235.088c-6.391-3.689-9.916-8.412-10.594-13.247-.838,5.981,2.686,12.13,10.594,16.7l26.233,15.321c14.3,8.254,37.56,8.254,51.856,0L490.831,237c7.908-4.565,11.432-10.712,10.594-16.693C500.747,225.14,497.223,229.863,490.831,233.552Z" transform="translate(-373.395 -220.307)" fill="#fff"/>
                    </g>
                  </g>
                </g>
                <g id="Groupe_1241" data-name="Groupe 1241" transform="translate(0.001 39.269)">
                  <path id="Tracé_132" data-name="Tracé 132" d="M387.937,234.232l2.419-.32c-.334-.162-.658-.334-.981-.509Z" transform="translate(-356.013 -205.725)" fill="#42e8e0" opacity="0.4"/>
                  <path id="Tracé_133" data-name="Tracé 133" d="M416.179,231.837l-.121.009-1.6.661A4.974,4.974,0,0,0,416.179,231.837Z" transform="translate(-324.322 -207.594)" fill="#42e8e0" opacity="0.4"/>
                  <path id="Tracé_134" data-name="Tracé 134" d="M428.5,222.165a7.407,7.407,0,0,0-.009-1.374q-.053.652-.189,1.464Z" transform="translate(-307.787 -220.791)" fill="#42e8e0" opacity="0.4"/>
                  <path id="Tracé_135" data-name="Tracé 135" d="M501.56,226.352l-.018-.007c.009.237.02.476.015.713-.114,5.333-3.687,10.646-10.719,14.707L462.2,258.623c-14.3,8.254-37.56,8.254-51.857,0L384.114,243.3c-7.148-4.126-10.723-9.547-10.723-14.968h0v1.512h0c0,5.421,3.575,10.842,10.723,14.968l26.233,15.321c14.3,8.254,37.56,8.254,51.857,0l28.634-16.858c7.032-4.06,10.6-9.371,10.719-14.7,0-.239-.007-.476-.015-.716l.018.007Z" transform="translate(-373.391 -214.156)" fill="#42e8e0" opacity="0.8"/>
                </g>
              </g>
              <g id="Groupe_1249" data-name="Groupe 1249" transform="translate(0 105.965)">
                <path id="Tracé_136" data-name="Tracé 136" d="M501.56,229.133V214.9l-7.653,3.5c2.884-17.43-22.573,22.362-30.375,23.448l5.976-2.473-38.183,2.618-26.009,3.45,2.818-1.626c-10.416-4.866-16.028-16-21.662-26.152l-8.206,4.894-4.874-5.673v14.228h0c0,5.421,3.575,10.842,10.723,14.968L410.348,261.4c14.3,8.254,37.56,8.254,51.857,0l28.632-16.858c7.034-4.06,10.607-9.374,10.721-14.707,0-.237-.007-.476-.015-.713Z" transform="translate(-373.39 -163.156)" fill="#42e8e0" opacity="0.4"/>
                <g id="Groupe_1247" data-name="Groupe 1247">
                  <g id="Groupe_1246" data-name="Groupe 1246">
                    <path id="Tracé_137" data-name="Tracé 137" d="M501.56,226.664v-16.5l-7.653-4.256c-2.16,13.059-17.527,21.66-30.375,23.448l5.976-2.473-38.183,13.789-26.009-7.721,2.818-1.626c-10.416-4.866-16.028-16-21.662-26.152l-8.206,4.894-4.874,1.372v17.2h0c0,5.421,3.575,10.842,10.723,14.968l26.233,15.321c14.3,8.254,37.56,8.254,51.857,0l28.632-16.858c7.034-4.06,10.607-9.374,10.721-14.707,0-.237-.007-.476-.015-.713Z" transform="translate(-373.39 -173.687)" fill="url(#linear-gradient-4)"/>
                    <path id="Tracé_138" data-name="Tracé 138" d="M501.56,226.664v-16.5l-7.653-4.256c-2.16,13.059-17.527,21.66-30.375,23.448l5.976-2.473-38.183,13.789-26.009-7.721,2.818-1.626c-10.416-4.866-16.028-16-21.662-26.152l-8.206,4.894-4.874,1.372v17.2h0c0,5.421,3.575,10.842,10.723,14.968l26.233,15.321c14.3,8.254,37.56,8.254,51.857,0l28.632-16.858c7.034-4.06,10.607-9.374,10.721-14.707,0-.237-.007-.476-.015-.713Z" transform="translate(-373.39 -173.687)" fill="url(#linear-gradient-5)"/>
                    <path id="Tracé_139" data-name="Tracé 139" d="M429.3,228.76l5.976-2.474-33.234,12v26.24c9.391,0,18.782-2.063,25.93-6.191l28.632-16.858c7.034-4.06,10.607-9.374,10.721-14.707,0-.237-.007-.476-.015-.713l.018,11.175V209.567l-6.992-3.889H459.6C457.218,218.528,442.026,226.989,429.3,228.76Z" transform="translate(-339.16 -173.087)" fill="#0f054c" opacity="0.3"/>
                    <g id="Groupe_1243" data-name="Groupe 1243">
                      <path id="Tracé_140" data-name="Tracé 140" d="M410.348,259.138l-26.233-15.321c-14.3-8.254-14.3-21.686,0-29.94l28.634-16.858c14.3-8.254,37.558-8.254,51.856,0l26.233,15.321c14.3,8.254,14.3,21.686,0,29.94L462.2,259.138C447.908,267.392,424.644,267.392,410.348,259.138Z" transform="translate(-373.391 -190.828)" fill="url(#linear-gradient-3)"/>
                    </g>
                    <g id="Groupe_1244" data-name="Groupe 1244" transform="translate(7.386 4.155)">
                      <path id="Tracé_141" data-name="Tracé 141" d="M432.4,258.913c-8.32,0-16.638-1.828-22.972-5.487h0l-23.071-13.473c-6.189-3.573-9.6-8.355-9.6-13.462s3.408-9.885,9.6-13.458l25.178-14.825c12.668-7.315,33.278-7.313,45.951,0l23.068,13.473c6.189,3.573,9.6,8.355,9.6,13.46s-3.406,9.887-9.6,13.46l-25.175,14.825C449.041,257.082,440.721,258.913,432.4,258.913Zm-22.63-6.079c12.481,7.2,32.785,7.2,45.259,0l25.178-14.825c5.972-3.448,9.259-8.017,9.259-12.868s-3.288-9.42-9.259-12.868L457.137,198.8c-12.475-7.2-32.778-7.205-45.259,0L386.7,213.623c-5.974,3.448-9.262,8.017-9.262,12.868s3.29,9.422,9.262,12.872Z" transform="translate(-376.756 -192.722)" fill="#5351af"/>
                    </g>
                    <g id="Groupe_1245" data-name="Groupe 1245" transform="translate(0.01 38.205)">
                      <path id="Tracé_142" data-name="Tracé 142" d="M490.831,221.483,462.2,238.341c-14.3,8.254-37.56,8.254-51.856,0L384.11,223.02c-6.391-3.689-9.916-8.414-10.594-13.247-.838,5.981,2.686,12.128,10.594,16.7l26.233,15.321c14.3,8.254,37.56,8.254,51.856,0l28.632-16.86c7.908-4.565,11.432-10.712,10.594-16.693C500.747,213.071,497.223,217.794,490.831,221.483Z" transform="translate(-373.395 -208.236)" fill="#fff"/>
                    </g>
                  </g>
                </g>
                <g id="Groupe_1248" data-name="Groupe 1248" transform="translate(0.001 39.267)">
                  <path id="Tracé_143" data-name="Tracé 143" d="M387.937,222.159l2.419-.32c-.334-.162-.658-.331-.981-.507Z" transform="translate(-356.013 -193.652)" fill="#42e8e0" opacity="0.4"/>
                  <path id="Tracé_144" data-name="Tracé 144" d="M416.179,219.767l-.121.009-1.6.661A5.021,5.021,0,0,0,416.179,219.767Z" transform="translate(-324.322 -195.522)" fill="#42e8e0" opacity="0.4"/>
                  <path id="Tracé_145" data-name="Tracé 145" d="M428.5,210.1a7.434,7.434,0,0,0-.009-1.376c-.035.435-.1.922-.189,1.466Z" transform="translate(-307.787 -208.72)" fill="#42e8e0" opacity="0.4"/>
                  <path id="Tracé_146" data-name="Tracé 146" d="M501.56,214.283l-.018-.009c.009.239.02.478.015.716-.114,5.333-3.687,10.644-10.719,14.7L462.2,246.554c-14.3,8.254-37.56,8.254-51.857,0l-26.233-15.321c-7.148-4.128-10.723-9.549-10.723-14.97h0v1.514h0c0,5.421,3.575,10.842,10.723,14.968l26.233,15.321c14.3,8.254,37.56,8.254,51.857,0l28.634-16.858c7.032-4.06,10.6-9.374,10.719-14.707,0-.237-.007-.476-.015-.713l.018.007Z" transform="translate(-373.391 -202.085)" fill="#42e8e0" opacity="0.8"/>
                </g>
              </g>
              <g id="Groupe_1256" data-name="Groupe 1256" transform="translate(0 79.473)">
                <path id="Tracé_147" data-name="Tracé 147" d="M501.56,217.061V202.835l-7.653,3.494c2.884-17.428-22.573,22.364-30.375,23.448l5.976-2.473-38.183,2.62-26.009,3.448,2.818-1.626c-10.416-4.866-16.028-16-21.662-26.15l-8.206,4.894-4.874-5.673v14.226h0c0,5.421,3.575,10.842,10.723,14.97l26.233,15.321c14.3,8.254,37.56,8.254,51.857,0l28.632-16.86c7.034-4.06,10.607-9.371,10.721-14.7,0-.239-.007-.476-.015-.715Z" transform="translate(-373.39 -151.085)" fill="#42e8e0" opacity="0.4"/>
                <g id="Groupe_1254" data-name="Groupe 1254">
                  <g id="Groupe_1253" data-name="Groupe 1253">
                    <path id="Tracé_148" data-name="Tracé 148" d="M501.56,214.592V198.1l-7.653-4.256c-2.16,13.056-17.527,21.66-30.375,23.448l5.976-2.473L431.325,228.6l-26.009-7.719,2.818-1.626c-10.416-4.866-16.028-16-21.662-26.152L378.265,198l-4.874,1.37v17.2h0c0,5.421,3.575,10.842,10.723,14.97l26.233,15.321c14.3,8.254,37.56,8.254,51.857,0l28.632-16.86c7.034-4.06,10.607-9.371,10.721-14.7,0-.239-.007-.476-.015-.715Z" transform="translate(-373.39 -161.615)" fill="url(#linear-gradient-4)"/>
                    <path id="Tracé_149" data-name="Tracé 149" d="M501.56,214.592V198.1l-7.653-4.256c-2.16,13.056-17.527,21.66-30.375,23.448l5.976-2.473L431.325,228.6l-26.009-7.719,2.818-1.626c-10.416-4.866-16.028-16-21.662-26.152L378.265,198l-4.874,1.37v17.2h0c0,5.421,3.575,10.842,10.723,14.97l26.233,15.321c14.3,8.254,37.56,8.254,51.857,0l28.632-16.86c7.034-4.06,10.607-9.371,10.721-14.7,0-.239-.007-.476-.015-.715Z" transform="translate(-373.39 -161.615)" fill="url(#linear-gradient-5)"/>
                    <path id="Tracé_150" data-name="Tracé 150" d="M429.3,216.69l5.976-2.473-33.234,12v26.238c9.391,0,18.782-2.063,25.93-6.189l28.632-16.86c7.034-4.06,10.607-9.371,10.721-14.7,0-.239-.007-.476-.015-.715l.018,11.175V197.5l-6.992-3.889H459.6C457.218,206.458,442.026,214.919,429.3,216.69Z" transform="translate(-339.16 -161.015)" fill="#0f054c" opacity="0.3"/>
                    <g id="Groupe_1250" data-name="Groupe 1250">
                      <path id="Tracé_151" data-name="Tracé 151" d="M410.348,247.067l-26.233-15.321c-14.3-8.254-14.3-21.684,0-29.938l28.634-16.86c14.3-8.254,37.558-8.254,51.856,0l26.233,15.321c14.3,8.254,14.3,21.684,0,29.938L462.2,247.067C447.908,255.323,424.644,255.323,410.348,247.067Z" transform="translate(-373.391 -178.757)" fill="url(#linear-gradient-3)"/>
                    </g>
                    <g id="Groupe_1251" data-name="Groupe 1251" transform="translate(7.386 4.156)">
                      <path id="Tracé_152" data-name="Tracé 152" d="M432.4,246.841c-8.32,0-16.638-1.826-22.972-5.487h0l-23.071-13.473c-6.189-3.573-9.6-8.353-9.6-13.458s3.408-9.887,9.6-13.462l25.178-14.823c12.668-7.315,33.278-7.315,45.951,0l23.068,13.475c6.189,3.573,9.6,8.353,9.6,13.46s-3.406,9.885-9.6,13.46l-25.175,14.823C449.041,245.013,440.721,246.841,432.4,246.841Zm-22.627-6.077c12.477,7.2,32.782,7.2,45.257,0l25.178-14.825c5.972-3.448,9.259-8.017,9.259-12.868s-3.288-9.422-9.259-12.868l-23.071-13.476c-12.475-7.2-32.778-7.2-45.259,0L386.7,201.551c-5.974,3.45-9.262,8.019-9.262,12.87s3.29,9.422,9.262,12.868Z" transform="translate(-376.756 -180.651)" fill="#5351af"/>
                    </g>
                    <g id="Groupe_1252" data-name="Groupe 1252" transform="translate(0.01 38.207)">
                      <path id="Tracé_153" data-name="Tracé 153" d="M490.831,209.411,462.2,226.269c-14.3,8.256-37.56,8.256-51.856,0L384.11,210.95c-6.391-3.691-9.916-8.414-10.594-13.247-.838,5.981,2.686,12.128,10.594,16.693l26.233,15.321c14.3,8.254,37.56,8.254,51.856,0l28.632-16.858c7.908-4.565,11.432-10.712,10.594-16.693C500.747,201,497.223,205.722,490.831,209.411Z" transform="translate(-373.395 -196.166)" fill="#fff"/>
                    </g>
                  </g>
                </g>
                <g id="Groupe_1255" data-name="Groupe 1255" transform="translate(0.001 39.269)">
                  <path id="Tracé_154" data-name="Tracé 154" d="M387.937,210.091l2.419-.32c-.334-.162-.658-.334-.981-.509Z" transform="translate(-356.013 -181.584)" fill="#42e8e0" opacity="0.4"/>
                  <path id="Tracé_155" data-name="Tracé 155" d="M416.179,207.7l-.121.007-1.6.661A5.008,5.008,0,0,0,416.179,207.7Z" transform="translate(-324.322 -183.452)" fill="#42e8e0" opacity="0.4"/>
                  <path id="Tracé_156" data-name="Tracé 156" d="M428.5,198.024a7.408,7.408,0,0,0-.009-1.374q-.053.652-.189,1.464Z" transform="translate(-307.787 -196.65)" fill="#42e8e0" opacity="0.4"/>
                  <path id="Tracé_157" data-name="Tracé 157" d="M501.56,202.211l-.018-.007c.009.239.02.476.015.715-.114,5.331-3.687,10.644-10.719,14.7L462.2,234.482c-14.3,8.254-37.56,8.254-51.857,0L384.114,219.16c-7.148-4.126-10.723-9.547-10.723-14.968h0V205.7h0c0,5.421,3.575,10.842,10.723,14.97L410.348,236c14.3,8.254,37.56,8.254,51.857,0l28.634-16.86c7.032-4.06,10.6-9.371,10.719-14.7,0-.239-.007-.476-.015-.715l.018.007Z" transform="translate(-373.391 -190.015)" fill="#42e8e0" opacity="0.8"/>
                </g>
              </g>
              <g id="Groupe_1263" data-name="Groupe 1263" transform="translate(0 52.982)">
                <path id="Tracé_158" data-name="Tracé 158" d="M501.56,204.991V190.765l-7.653,3.494c2.884-17.428-22.573,22.362-30.375,23.448l5.976-2.473-38.183,2.62L405.315,221.3l2.818-1.626c-10.416-4.866-16.028-16-21.662-26.152l-8.206,4.894-4.874-5.673v14.228h0c0,5.421,3.575,10.842,10.723,14.968l26.233,15.321c14.3,8.254,37.56,8.254,51.857,0L490.836,220.4c7.034-4.06,10.607-9.374,10.721-14.707,0-.237-.007-.476-.015-.713Z" transform="translate(-373.39 -139.015)" fill="#42e8e0" opacity="0.4"/>
                <g id="Groupe_1261" data-name="Groupe 1261">
                  <g id="Groupe_1260" data-name="Groupe 1260">
                    <path id="Tracé_159" data-name="Tracé 159" d="M501.56,202.522v-16.5l-7.653-4.256c-2.16,13.059-17.527,21.66-30.375,23.448l5.976-2.473-38.183,13.789-26.009-7.721,2.818-1.626c-10.416-4.866-16.028-16-21.662-26.15l-8.206,4.892-4.874,1.372v17.2h0c0,5.421,3.575,10.842,10.723,14.968l26.233,15.321c14.3,8.254,37.56,8.254,51.857,0l28.632-16.858c7.034-4.06,10.607-9.374,10.721-14.707,0-.237-.007-.474-.015-.713Z" transform="translate(-373.39 -149.545)" fill="url(#linear-gradient-13)"/>
                    <path id="Tracé_160" data-name="Tracé 160" d="M501.56,202.522v-16.5l-7.653-4.256c-2.16,13.059-17.527,21.66-30.375,23.448l5.976-2.473-38.183,13.789-26.009-7.721,2.818-1.626c-10.416-4.866-16.028-16-21.662-26.15l-8.206,4.892-4.874,1.372v17.2h0c0,5.421,3.575,10.842,10.723,14.968l26.233,15.321c14.3,8.254,37.56,8.254,51.857,0l28.632-16.858c7.034-4.06,10.607-9.374,10.721-14.707,0-.237-.007-.474-.015-.713Z" transform="translate(-373.39 -149.545)" fill="url(#linear-gradient-14)"/>
                    <path id="Tracé_161" data-name="Tracé 161" d="M429.3,204.619l5.976-2.473-33.234,12v26.238c9.391,0,18.782-2.063,25.93-6.191l28.632-16.858c7.034-4.06,10.607-9.374,10.721-14.707,0-.237-.007-.474-.015-.713l.018,11.175V185.426l-6.992-3.889H459.6C457.218,194.387,442.026,202.848,429.3,204.619Z" transform="translate(-339.16 -148.946)" fill="#0f054c" opacity="0.3"/>
                    <g id="Groupe_1257" data-name="Groupe 1257">
                      <path id="Tracé_162" data-name="Tracé 162" d="M410.348,235l-26.233-15.321c-14.3-8.254-14.3-21.686,0-29.94l28.634-16.858c14.3-8.254,37.558-8.254,51.856,0L490.837,188.2c14.3,8.254,14.3,21.686,0,29.94L462.2,235C447.908,243.251,424.644,243.251,410.348,235Z" transform="translate(-373.391 -166.687)" fill="url(#linear-gradient-3)"/>
                    </g>
                    <g id="Groupe_1258" data-name="Groupe 1258" transform="translate(7.386 4.157)">
                      <path id="Tracé_163" data-name="Tracé 163" d="M432.4,234.769c-8.32,0-16.638-1.828-22.972-5.485h0l-23.071-13.473c-6.189-3.573-9.6-8.355-9.6-13.46s3.411-9.887,9.6-13.462l25.178-14.821c12.668-7.315,33.278-7.315,45.951,0l23.068,13.473c6.191,3.575,9.6,8.355,9.6,13.46s-3.406,9.887-9.6,13.46l-25.175,14.823C449.041,232.941,440.721,234.769,432.4,234.769Zm-22.63-6.077c12.481,7.205,32.785,7.2,45.259,0l25.178-14.823c5.972-3.448,9.259-8.017,9.259-12.87s-3.288-9.42-9.259-12.868l-23.071-13.473c-12.475-7.2-32.778-7.205-45.259,0L386.7,189.481c-5.974,3.448-9.262,8.017-9.262,12.87s3.29,9.42,9.262,12.868Z" transform="translate(-376.756 -168.581)" fill="#5351af"/>
                    </g>
                    <g id="Groupe_1259" data-name="Groupe 1259" transform="translate(0.01 38.205)">
                      <path id="Tracé_164" data-name="Tracé 164" d="M490.831,197.342,462.2,214.2c-14.3,8.254-37.56,8.254-51.856,0L384.11,198.879c-6.391-3.689-9.916-8.414-10.594-13.247-.838,5.981,2.686,12.13,10.594,16.7l26.233,15.321c14.3,8.254,37.56,8.254,51.856,0l28.632-16.858c7.908-4.565,11.432-10.715,10.594-16.7C500.747,188.93,497.223,193.653,490.831,197.342Z" transform="translate(-373.395 -184.095)" fill="#fff"/>
                    </g>
                  </g>
                </g>
                <g id="Groupe_1262" data-name="Groupe 1262" transform="translate(0.001 39.267)">
                  <path id="Tracé_165" data-name="Tracé 165" d="M387.937,198.021l2.419-.32c-.334-.162-.658-.334-.981-.509Z" transform="translate(-356.013 -169.511)" fill="#42e8e0" opacity="0.4"/>
                  <path id="Tracé_166" data-name="Tracé 166" d="M416.179,195.626l-.121.009-1.6.661A4.975,4.975,0,0,0,416.179,195.626Z" transform="translate(-324.322 -171.381)" fill="#42e8e0" opacity="0.4"/>
                  <path id="Tracé_167" data-name="Tracé 167" d="M428.5,185.955a7.434,7.434,0,0,0-.009-1.376c-.035.437-.1.922-.189,1.466Z" transform="translate(-307.787 -184.579)" fill="#42e8e0" opacity="0.4"/>
                  <path id="Tracé_168" data-name="Tracé 168" d="M501.56,190.141l-.018-.007c.009.237.02.476.015.713-.114,5.333-3.687,10.646-10.719,14.7L462.2,222.412c-14.3,8.254-37.56,8.254-51.857,0L384.114,207.09c-7.148-4.128-10.723-9.549-10.723-14.97h0v1.514h0c0,5.421,3.575,10.842,10.723,14.968l26.233,15.321c14.3,8.254,37.56,8.254,51.857,0l28.634-16.858c7.032-4.06,10.6-9.374,10.719-14.707,0-.237-.007-.476-.015-.713l.018.007Z" transform="translate(-373.391 -177.942)" fill="#42e8e0" opacity="0.8"/>
                </g>
              </g>
              <g id="Groupe_1270" data-name="Groupe 1270" transform="translate(0 26.491)">
                <path id="Tracé_169" data-name="Tracé 169" d="M501.56,192.922V178.693l-7.653,3.5c2.884-17.43-22.573,22.362-30.375,23.448l5.976-2.476-38.183,2.62-26.009,3.448,2.818-1.626c-10.416-4.863-16.028-16-21.662-26.15l-8.206,4.894-4.874-5.673V194.9h0c0,5.421,3.575,10.842,10.723,14.97l26.233,15.321c14.3,8.254,37.56,8.254,51.857,0l28.632-16.858c7.034-4.062,10.607-9.374,10.721-14.707,0-.239-.007-.476-.015-.713Z" transform="translate(-373.39 -126.944)" fill="#42e8e0" opacity="0.4"/>
                <g id="Groupe_1268" data-name="Groupe 1268">
                  <g id="Groupe_1267" data-name="Groupe 1267">
                    <path id="Tracé_170" data-name="Tracé 170" d="M501.56,190.453v-16.5l-7.653-4.255c-2.16,13.056-17.527,21.66-30.375,23.448l5.976-2.473-38.183,13.787-26.009-7.719,2.818-1.626c-10.416-4.866-16.028-16-21.662-26.152l-8.206,4.894-4.874,1.369v17.2h0c0,5.421,3.575,10.842,10.723,14.97l26.233,15.321c14.3,8.254,37.56,8.254,51.857,0l28.632-16.858c7.034-4.06,10.607-9.374,10.721-14.707,0-.237-.007-.476-.015-.713Z" transform="translate(-373.39 -137.475)" fill="url(#linear-gradient-4)"/>
                    <path id="Tracé_171" data-name="Tracé 171" d="M501.56,190.453v-16.5l-7.653-4.255c-2.16,13.056-17.527,21.66-30.375,23.448l5.976-2.473-38.183,13.787-26.009-7.719,2.818-1.626c-10.416-4.866-16.028-16-21.662-26.152l-8.206,4.894-4.874,1.369v17.2h0c0,5.421,3.575,10.842,10.723,14.97l26.233,15.321c14.3,8.254,37.56,8.254,51.857,0l28.632-16.858c7.034-4.06,10.607-9.374,10.721-14.707,0-.237-.007-.476-.015-.713Z" transform="translate(-373.39 -137.475)" fill="url(#linear-gradient-5)"/>
                    <path id="Tracé_172" data-name="Tracé 172" d="M429.3,192.549l5.976-2.473-33.234,12v26.238c9.391,0,18.782-2.061,25.93-6.189l28.632-16.857c7.034-4.06,10.607-9.374,10.721-14.707,0-.237-.007-.476-.015-.713l.018,11.175V173.356l-6.992-3.889H459.6C457.218,182.317,442.026,190.778,429.3,192.549Z" transform="translate(-339.16 -136.875)" fill="#0f054c" opacity="0.3"/>
                    <g id="Groupe_1264" data-name="Groupe 1264">
                      <path id="Tracé_173" data-name="Tracé 173" d="M410.348,222.928l-26.233-15.321c-14.3-8.257-14.3-21.686,0-29.94l28.634-16.86c14.3-8.254,37.558-8.252,51.856,0l26.233,15.321c14.3,8.254,14.3,21.686,0,29.938L462.2,222.928C447.908,231.182,424.644,231.182,410.348,222.928Z" transform="translate(-373.391 -154.617)" fill="url(#linear-gradient-3)"/>
                    </g>
                    <g id="Groupe_1265" data-name="Groupe 1265" transform="translate(7.386 4.155)">
                      <path id="Tracé_174" data-name="Tracé 174" d="M432.4,222.7c-8.32,0-16.638-1.828-22.972-5.485l0,0-23.071-13.471c-6.189-3.575-9.6-8.355-9.6-13.46s3.411-9.887,9.6-13.462L411.533,162c12.668-7.315,33.278-7.315,45.951,0l23.068,13.475c6.189,3.573,9.6,8.353,9.6,13.46s-3.406,9.887-9.6,13.46l-25.175,14.823C449.041,220.872,440.721,222.7,432.4,222.7Zm-22.63-6.079c12.481,7.207,32.785,7.205,45.259,0L480.208,201.8c5.972-3.45,9.259-8.019,9.259-12.87s-3.288-9.422-9.259-12.868l-23.071-13.475c-12.481-7.2-32.785-7.2-45.259,0L386.7,177.412c-5.974,3.448-9.262,8.017-9.262,12.87s3.29,9.42,9.262,12.868Z" transform="translate(-376.756 -156.51)" fill="#5351af"/>
                    </g>
                    <g id="Groupe_1266" data-name="Groupe 1266" transform="translate(0.01 38.206)">
                      <path id="Tracé_175" data-name="Tracé 175" d="M490.831,185.27,462.2,202.13c-14.3,8.254-37.56,8.254-51.856,0L384.11,186.809c-6.391-3.689-9.916-8.414-10.594-13.247-.838,5.981,2.686,12.128,10.594,16.693l26.233,15.321c14.3,8.254,37.56,8.254,51.856,0l28.632-16.858c7.908-4.565,11.432-10.712,10.594-16.693C500.747,176.858,497.223,181.583,490.831,185.27Z" transform="translate(-373.395 -172.025)" fill="#fff"/>
                    </g>
                  </g>
                </g>
                <g id="Groupe_1269" data-name="Groupe 1269" transform="translate(0.001 39.268)">
                  <path id="Tracé_176" data-name="Tracé 176" d="M387.937,185.95l2.419-.32c-.334-.162-.658-.334-.981-.509Z" transform="translate(-356.013 -157.443)" fill="#42e8e0" opacity="0.4"/>
                  <path id="Tracé_177" data-name="Tracé 177" d="M416.179,183.556l-.121.007-1.6.661A5.009,5.009,0,0,0,416.179,183.556Z" transform="translate(-324.322 -159.311)" fill="#42e8e0" opacity="0.4"/>
                  <path id="Tracé_178" data-name="Tracé 178" d="M428.5,173.883a7.41,7.41,0,0,0-.009-1.374q-.053.652-.189,1.464Z" transform="translate(-307.787 -172.509)" fill="#42e8e0" opacity="0.4"/>
                  <path id="Tracé_179" data-name="Tracé 179" d="M501.56,178.07l-.018-.007c.009.239.02.476.015.715-.114,5.333-3.687,10.644-10.719,14.7L462.2,210.341c-14.3,8.256-37.56,8.256-51.857,0l-26.233-15.319c-7.148-4.128-10.723-9.549-10.723-14.97h0v1.512h0c0,5.421,3.575,10.842,10.723,14.97l26.233,15.321c14.3,8.254,37.56,8.254,51.857,0L490.839,195c7.032-4.058,10.6-9.371,10.719-14.7,0-.237-.007-.476-.015-.713l.018,0Z" transform="translate(-373.391 -165.874)" fill="#42e8e0" opacity="0.8"/>
                </g>
              </g>
              <g id="Groupe_1277" data-name="Groupe 1277">
                <path id="Tracé_180" data-name="Tracé 180" d="M501.56,180.85V166.624l-7.653,3.494c2.884-17.428-22.573,22.362-30.375,23.448l5.976-2.473-38.183,2.62-26.009,3.448,2.818-1.626c-10.416-4.866-16.028-16-21.662-26.152l-8.206,4.894-4.874-5.671v14.226h0c0,5.421,3.575,10.842,10.723,14.968l26.233,15.321c14.3,8.254,37.56,8.254,51.857,0l28.632-16.858c7.034-4.06,10.607-9.374,10.721-14.7,0-.239-.007-.476-.015-.715Z" transform="translate(-373.39 -114.874)" fill="#42e8e0" opacity="0.4"/>
                <g id="Groupe_1275" data-name="Groupe 1275">
                  <g id="Groupe_1274" data-name="Groupe 1274">
                    <path id="Tracé_181" data-name="Tracé 181" d="M501.56,178.381v-16.5l-7.653-4.258c-2.16,13.058-17.527,21.662-30.375,23.45l5.976-2.476-38.183,13.789-26.009-7.721,2.818-1.626c-10.416-4.863-16.028-16-21.662-26.15l-8.206,4.894-4.874,1.369v17.2h0c0,5.421,3.575,10.842,10.723,14.968l26.233,15.321c14.3,8.254,37.56,8.254,51.857,0l28.632-16.858c7.034-4.06,10.607-9.371,10.721-14.7,0-.239-.007-.476-.015-.715Z" transform="translate(-373.39 -125.404)" fill="url(#linear-gradient-13)"/>
                    <path id="Tracé_182" data-name="Tracé 182" d="M501.56,178.381v-16.5l-7.653-4.258c-2.16,13.058-17.527,21.662-30.375,23.45l5.976-2.476-38.183,13.789-26.009-7.721,2.818-1.626c-10.416-4.863-16.028-16-21.662-26.15l-8.206,4.894-4.874,1.369v17.2h0c0,5.421,3.575,10.842,10.723,14.968l26.233,15.321c14.3,8.254,37.56,8.254,51.857,0l28.632-16.858c7.034-4.06,10.607-9.371,10.721-14.7,0-.239-.007-.476-.015-.715Z" transform="translate(-373.39 -125.404)" fill="url(#linear-gradient-14)"/>
                    <path id="Tracé_183" data-name="Tracé 183" d="M429.3,180.48,435.277,178l-33.234,12v26.238c9.391,0,18.782-2.063,25.93-6.191L456.606,193.2c7.034-4.06,10.607-9.371,10.721-14.7,0-.239-.007-.476-.015-.715l.018,11.175V161.287l-6.992-3.891H459.6C457.218,170.246,442.026,178.707,429.3,180.48Z" transform="translate(-339.16 -124.805)" fill="#0f054c" opacity="0.3"/>
                    <g id="Groupe_1271" data-name="Groupe 1271">
                      <path id="Tracé_184" data-name="Tracé 184" d="M410.348,210.856l-26.233-15.321c-14.3-8.254-14.3-21.686,0-29.94l28.634-16.858c14.3-8.254,37.558-8.254,51.856,0l26.233,15.321c14.3,8.254,14.3,21.686,0,29.94L462.2,210.856C447.908,219.11,424.644,219.11,410.348,210.856Z" transform="translate(-373.391 -142.546)" fill="url(#linear-gradient-3)"/>
                    </g>
                    <g id="Groupe_1272" data-name="Groupe 1272" transform="translate(7.386 4.156)">
                      <path id="Tracé_185" data-name="Tracé 185" d="M432.4,210.63c-8.318,0-16.638-1.828-22.972-5.485l0,0L386.356,191.67c-6.189-3.573-9.6-8.353-9.6-13.46s3.408-9.887,9.6-13.462l25.178-14.821c12.668-7.317,33.278-7.315,45.951,0L480.552,163.4c6.189,3.573,9.6,8.353,9.6,13.458s-3.406,9.887-9.6,13.462l-25.175,14.823C449.043,208.8,440.721,210.63,432.4,210.63Zm-22.627-6.077c12.479,7.2,32.78,7.2,45.257,0l25.178-14.823c5.972-3.448,9.259-8.017,9.259-12.87s-3.288-9.42-9.259-12.865l-23.071-13.475c-12.475-7.2-32.778-7.205-45.259,0L386.7,165.34c-5.974,3.45-9.262,8.019-9.262,12.87s3.29,9.422,9.262,12.868Z" transform="translate(-376.756 -144.44)" fill="#5351af"/>
                    </g>
                    <g id="Groupe_1273" data-name="Groupe 1273" transform="translate(0.01 38.207)">
                      <path id="Tracé_186" data-name="Tracé 186" d="M490.831,173.2,462.2,190.058c-14.3,8.254-37.56,8.254-51.856,0L384.11,174.736c-6.391-3.689-9.916-8.412-10.594-13.245-.838,5.978,2.686,12.128,10.594,16.693l26.233,15.321c14.3,8.254,37.56,8.254,51.856,0l28.632-16.858c7.908-4.565,11.432-10.712,10.594-16.693C500.747,164.788,497.223,169.511,490.831,173.2Z" transform="translate(-373.395 -159.955)" fill="#fff"/>
                    </g>
                  </g>
                </g>
                <g id="Groupe_1276" data-name="Groupe 1276" transform="translate(0.001 39.269)">
                  <path id="Tracé_187" data-name="Tracé 187" d="M387.937,173.88l2.419-.32c-.334-.162-.658-.334-.981-.509Z" transform="translate(-356.013 -145.373)" fill="#42e8e0" opacity="0.4"/>
                  <path id="Tracé_188" data-name="Tracé 188" d="M416.179,171.485l-.121.009-1.6.661A4.975,4.975,0,0,0,416.179,171.485Z" transform="translate(-324.322 -147.242)" fill="#42e8e0" opacity="0.4"/>
                  <path id="Tracé_189" data-name="Tracé 189" d="M428.5,161.813a7.407,7.407,0,0,0-.009-1.374q-.053.652-.189,1.464Z" transform="translate(-307.787 -160.439)" fill="#42e8e0" opacity="0.4"/>
                  <path id="Tracé_190" data-name="Tracé 190" d="M501.56,166l-.018-.007c.009.237.02.476.015.713-.114,5.333-3.687,10.647-10.719,14.707L462.2,198.271c-14.3,8.254-37.56,8.254-51.857,0l-26.233-15.321c-7.148-4.126-10.723-9.547-10.723-14.968h0v1.512h0c0,5.421,3.575,10.842,10.723,14.968l26.233,15.321c14.3,8.254,37.56,8.254,51.857,0l28.634-16.858c7.032-4.06,10.6-9.371,10.719-14.7,0-.239-.007-.476-.015-.715l.018.007Z" transform="translate(-373.391 -153.804)" fill="#42e8e0" opacity="0.8"/>
                </g>
              </g>
            </g>
          </g>
        </g>
        <g id="Groupe_1285" data-name="Groupe 1285">
          <path id="Tracé_191" data-name="Tracé 191" d="M708.639,337.642V166.786l-9.551,4.361c3.6-21.756-28.178,27.914-37.918,29.271L551.953,264.284l-47.665,3.27-152.141-64.57,3.516-2.03c-13-6.073-20.007-19.97-27.039-32.644l-10.243,6.108-6.086-7.08V338.193h0c0,6.768,4.464,13.535,13.385,18.686l152.424,88c17.845,10.3,46.883,10.3,64.731,0l152.418-88c8.779-5.068,13.238-11.7,13.381-18.357.006-.3-.007-.259-.018-.555Z" transform="translate(-312.295 -33.31)" fill="#397bff" opacity="0.4"/>
          <path id="Tracé_192" data-name="Tracé 192" d="M708.639,214.842l-.022-.009c.011.3.024.595.018.893-.143,6.656-4.6,13.287-13.381,18.357l-152.418,88c-17.847,10.3-46.885,10.3-64.731,0l-152.424-88c-8.921-5.151-13.383-11.917-13.385-18.686h0v64.033h0c0,6.768,4.464,13.535,13.385,18.686l152.424,88c17.845,10.3,46.883,10.3,64.731,0l152.418-88c8.779-5.068,13.238-11.7,13.381-18.357.006-.3-.007-.593-.018-.891l.022.009Z" transform="translate(-312.295 25.457)" fill="#7bfff5" opacity="0.4"/>
          <path id="Tracé_193" data-name="Tracé 193" d="M708.639,214.748l-.022-.009c.011.3.024.595.018.891-.143,6.657-4.6,13.289-13.381,18.357l-152.418,88c-17.847,10.3-46.885,10.3-64.731,0l-152.424-88c-8.921-5.153-13.383-11.919-13.385-18.686h0v3.711h0c0,6.766,4.464,13.535,13.385,18.686l152.424,88c17.845,10.3,46.883,10.3,64.731,0l152.418-88c8.779-5.068,13.238-11.7,13.381-18.357.006-.3-.007-.595-.018-.891l.022.009Z" transform="translate(-312.295 25.345)" fill="#397bff"/>
          <g id="Groupe_1283" data-name="Groupe 1283">
            <g id="Groupe_1282" data-name="Groupe 1282">
              <path id="Tracé_194" data-name="Tracé 194" d="M708.639,182.509V161.916l-9.551-5.311c-2.7,16.3-21.881,27.037-37.918,29.269L551.953,249.742l-47.665,17.211L352.146,188.439l3.516-2.03c-13-6.073-20.007-19.967-27.039-32.644l-10.243,6.11-6.086,1.71V183.06h0c0,6.766,4.464,13.535,13.385,18.686l152.424,88c17.845,10.3,46.883,10.3,64.731,0l152.418-88c8.779-5.068,13.238-11.7,13.381-18.357.006-.3-.007-.595-.018-.891Z" transform="translate(-312.295 -47.501)" fill="url(#linear-gradient-2)"/>
              <path id="Tracé_195" data-name="Tracé 195" d="M708.639,182.509V161.916l-9.551-5.311c-2.7,16.3-21.881,27.037-37.918,29.269L551.953,249.742l-47.665,17.211L352.146,188.439l3.516-2.03c-13-6.073-20.007-19.967-27.039-32.644l-10.243,6.11-6.086,1.71V183.06h0c0,6.766,4.464,13.535,13.385,18.686l152.424,88c17.845,10.3,46.883,10.3,64.731,0l152.418-88c8.779-5.068,13.238-11.7,13.381-18.357.006-.3-.007-.595-.018-.891Z" transform="translate(-312.295 -47.501)" fill="#021b79"/>
              <path id="Tracé_196" data-name="Tracé 196" d="M553.294,184.079,444.077,247.947,402.59,262.928V295.68c11.722,0,23.446-2.574,32.37-7.728l152.418-88c8.779-5.068,13.239-11.7,13.381-18.357.006-.3-.007-.595-.018-.891l.022,167.384V160.122l-8.731-4.855h-.913C588.141,171.306,569.179,181.867,553.294,184.079Z" transform="translate(-204.419 -45.707)" fill="#0f054c" opacity="0.3"/>
              <path id="Tracé_197" data-name="Tracé 197" d="M359.531,197.425a19.2,19.2,0,0,1,3.057-2.166l79.275-45.768c9.281-5.359,24.383-5.359,33.667,0l79.277,45.771a19.2,19.2,0,0,1,3.057,2.166c6.077-5.331,5.059-12.587-3.057-17.272L475.53,134.384c-9.284-5.359-24.385-5.359-33.667,0l-79.275,45.768C354.472,184.838,353.454,192.094,359.531,197.425Z" transform="translate(-260.526 -75.458)" fill="url(#radial-gradient-3)"/>
              <path id="Tracé_198" data-name="Tracé 198" d="M695.253,201.078l-152.422-88c-17.847-10.3-46.888-10.3-64.733,0l-152.418,88c-17.847,10.3-17.847,27.07,0,37.374l152.424,88c17.845,10.3,46.883,10.3,64.731,0l152.418-88C713.1,228.145,713.1,211.38,695.253,201.078Zm-88.677,28.4L527.3,275.25c-9.281,5.359-24.385,5.359-33.667,0L414.358,229.48c-9.281-5.359-9.281-14.079,0-19.438l79.275-45.768c9.281-5.359,24.383-5.359,33.667,0l79.277,45.771C615.858,215.4,615.858,224.123,606.577,229.482Z" transform="translate(-312.295 -105.347)" fill="url(#linear-gradient-3)"/>
              <path id="Tracé_199" data-name="Tracé 199" d="M668.256,197.056,529.893,117.17c-16.2-9.352-42.56-9.354-58.759,0L332.773,197.051c-16.2,9.354-16.2,24.572,0,33.926l138.363,79.885c16.2,9.354,42.56,9.354,58.761,0l138.359-79.883C684.457,221.627,684.457,206.409,668.256,197.056ZM618.3,225.927l-97.149,56.088c-11.375,6.569-29.883,6.569-41.258,0l-97.151-56.09c-11.375-6.567-11.377-17.253,0-23.819l97.149-56.09c11.375-6.567,29.883-6.567,41.258,0l97.151,56.09C629.669,208.674,629.669,219.36,618.3,225.927Z" transform="translate(-302.344 -99.601)" fill="#251c72"/>
              <path id="Tracé_200" data-name="Tracé 200" d="M668.256,197.056,529.893,117.17c-16.2-9.352-42.56-9.354-58.759,0L332.773,197.051c-16.2,9.354-16.2,24.572,0,33.926l138.363,79.885c16.2,9.354,42.56,9.354,58.761,0l138.359-79.883C684.457,221.627,684.457,206.409,668.256,197.056ZM618.3,225.927l-97.149,56.088c-11.375,6.569-29.883,6.569-41.258,0l-97.151-56.09c-11.375-6.567-11.377-17.253,0-23.819l97.149-56.09c11.375-6.567,29.883-6.567,41.258,0l97.151,56.09C629.669,208.674,629.669,219.36,618.3,225.927Z" transform="translate(-302.344 -99.601)" fill="#42e8e0" opacity="0.4"/>
              <g id="Groupe_1281" data-name="Groupe 1281" transform="translate(0.012 116.564)">
                <path id="Tracé_201" data-name="Tracé 201" d="M695.247,175,542.829,263c-17.847,10.3-46.885,10.3-64.731,0L325.674,175c-7.978-4.607-12.378-10.5-13.223-16.537C311.4,165.924,315.8,173.6,325.674,179.3l152.424,88c17.845,10.3,46.883,10.3,64.731,0l152.418-88c9.87-5.7,14.27-13.37,13.223-20.837C707.623,164.5,703.225,170.393,695.247,175Z" transform="translate(-312.3 -158.458)" fill="#fff"/>
              </g>
              <path id="Tracé_202" data-name="Tracé 202" d="M486.63,295.4c-9.183,0-18.368-2.019-25.358-6.055L342.859,220.98c-6.845-3.953-10.611-9.238-10.611-14.887s3.766-10.936,10.611-14.889L461.268,122.84c13.982-8.068,36.731-8.072,50.717,0L630.4,191.207c6.843,3.953,10.611,9.24,10.611,14.889S637.24,217.03,630.4,220.982L511.99,289.345C505,293.381,495.815,295.4,486.63,295.4Zm0-177.771c-9.029,0-18.056,1.984-24.93,5.952L343.287,191.946c-6.569,3.79-10.186,8.814-10.186,14.147s3.617,10.355,10.186,14.145L461.7,288.6c13.748,7.938,36.114,7.938,49.862,0l118.409-68.363c6.567-3.79,10.186-8.814,10.186-14.145s-3.619-10.355-10.186-14.147L511.558,123.584C504.684,119.613,495.655,117.629,486.626,117.629Z" transform="translate(-288.457 -91.679)" fill="#397bff"/>
            </g>
          </g>
          <g id="Groupe_1284" data-name="Groupe 1284" transform="translate(95.102 54.907)" opacity="0.4">
            <path id="Tracé_203" data-name="Tracé 203" d="M441.865,245.362l-79.277-45.771c-9.281-5.359-9.281-14.079,0-19.438l79.275-45.768c9.281-5.359,24.383-5.359,33.667,0l79.277,45.771c9.281,5.359,9.281,14.079,0,19.439l-79.275,45.768C466.251,250.721,451.147,250.721,441.865,245.362Z" transform="translate(-355.627 -130.365)" fill="#42e8e0"/>
          </g>
        </g>
      </g>
      <path id="Tracé_204" data-name="Tracé 204" d="M501.542,211.543c.009.239.02.476.015.715-.114,5.331-3.687,10.644-10.719,14.7L462.2,243.821c-14.3,8.254-37.56,8.254-51.857,0L384.114,228.5c-7.148-4.126-10.723-9.547-10.723-14.968h0v47h0c0,5.421,3.575,10.842,10.723,14.968l26.233,15.321c14.3,8.254,37.56,8.257,51.857,0l28.634-16.858c7.032-4.06,10.6-9.374,10.719-14.7,0-.239-.007-.476-.015-.715l.018.007v-13h0V232.057h0v-13h0V211.55Z" transform="translate(-239.303 21.526)" fill="#7bfff5" opacity="0.6"/>
    </g>
    <path id="Tracé_205" data-name="Tracé 205" d="M448.675,260.364a7.687,7.687,0,0,0,1.929-4.874V75.89h-1.648Z" transform="translate(285.651 11.009)" fill="#397bff" opacity="0.5"/>
    <path id="Tracé_206" data-name="Tracé 206" d="M357.556,260.364a7.686,7.686,0,0,1-1.929-4.874V75.89h1.648Z" transform="translate(174.486 11.009)" fill="#397bff" opacity="0.5"/>
    <g id="Groupe_1290" data-name="Groupe 1290" transform="translate(662.936 299.041)">
      <g id="Groupe_1288" data-name="Groupe 1288">
        <path id="Tracé_207" data-name="Tracé 207" d="M437.879,209.134l-20.643,11.917c-.6.347-1.089-.022-1.089-.823h0a2.608,2.608,0,0,1,1.089-2.081l20.643-11.917c.6-.347,1.089.02,1.089.823h0A2.608,2.608,0,0,1,437.879,209.134Z" transform="translate(-416.147 -132.47)" fill="#397bff"/>
        <path id="Tracé_208" data-name="Tracé 208" d="M457.248,197.951,436.6,209.868c-.6.347-1.089-.022-1.089-.823h0a2.614,2.614,0,0,1,1.089-2.081l20.643-11.917c.6-.347,1.089.022,1.089.823h0A2.612,2.612,0,0,1,457.248,197.951Z" transform="translate(-393.007 -145.83)" fill="#397bff"/>
        <path id="Tracé_209" data-name="Tracé 209" d="M476.616,186.768l-20.641,11.917c-.6.347-1.089-.022-1.089-.823h0a2.608,2.608,0,0,1,1.089-2.081l20.641-11.917c.6-.347,1.091.022,1.091.823h0A2.6,2.6,0,0,1,476.616,186.768Z" transform="translate(-369.865 -159.19)" fill="#397bff"/>
        <path id="Tracé_210" data-name="Tracé 210" d="M495.987,175.585,475.344,187.5c-.6.347-1.089-.02-1.089-.823h0a2.611,2.611,0,0,1,1.089-2.081l20.643-11.917c.6-.347,1.089.022,1.089.823h0A2.608,2.608,0,0,1,495.987,175.585Z" transform="translate(-346.725 -172.551)" fill="#397bff"/>
      </g>
      <g id="Groupe_1289" data-name="Groupe 1289" transform="translate(0 186.671)">
        <path id="Tracé_211" data-name="Tracé 211" d="M437.879,294.189l-20.643,11.917c-.6.349-1.089-.02-1.089-.823h0a2.6,2.6,0,0,1,1.089-2.078l20.643-11.919c.6-.347,1.089.022,1.089.823h0A2.608,2.608,0,0,1,437.879,294.189Z" transform="translate(-416.147 -217.524)" fill="#397bff"/>
        <path id="Tracé_212" data-name="Tracé 212" d="M457.248,283.006,436.6,294.923c-.6.349-1.089-.02-1.089-.823h0a2.61,2.61,0,0,1,1.089-2.078L457.248,280.1c.6-.347,1.089.022,1.089.823h0A2.605,2.605,0,0,1,457.248,283.006Z" transform="translate(-393.007 -230.885)" fill="#397bff"/>
        <path id="Tracé_213" data-name="Tracé 213" d="M476.616,271.823l-20.641,11.919c-.6.347-1.089-.022-1.089-.823h0a2.6,2.6,0,0,1,1.089-2.081l20.641-11.919c.6-.347,1.091.022,1.091.823h0A2.6,2.6,0,0,1,476.616,271.823Z" transform="translate(-369.865 -244.245)" fill="#397bff"/>
        <path id="Tracé_214" data-name="Tracé 214" d="M495.987,260.64l-20.643,11.919c-.6.347-1.089-.022-1.089-.823h0a2.6,2.6,0,0,1,1.089-2.081l20.643-11.919c.6-.347,1.089.022,1.089.823h0A2.6,2.6,0,0,1,495.987,260.64Z" transform="translate(-346.725 -257.606)" fill="#397bff"/>
      </g>
    </g>
    <g id="Groupe_1293" data-name="Groupe 1293" transform="translate(452.477 299.041)">
      <g id="Groupe_1291" data-name="Groupe 1291">
        <path id="Tracé_215" data-name="Tracé 215" d="M379.45,209.134l20.641,11.917c.6.347,1.091-.022,1.091-.823h0a2.61,2.61,0,0,0-1.091-2.081L379.45,206.23c-.6-.347-1.089.02-1.089.823h0A2.608,2.608,0,0,0,379.45,209.134Z" transform="translate(-250.831 -132.47)" fill="#397bff"/>
        <path id="Tracé_216" data-name="Tracé 216" d="M360.08,197.951l20.643,11.917c.6.347,1.089-.022,1.089-.823h0a2.608,2.608,0,0,0-1.089-2.081L360.08,195.047c-.6-.347-1.089.022-1.089.823h0A2.617,2.617,0,0,0,360.08,197.951Z" transform="translate(-273.972 -145.83)" fill="#397bff"/>
        <path id="Tracé_217" data-name="Tracé 217" d="M340.711,186.768l20.643,11.917c.6.347,1.089-.022,1.089-.823h0a2.608,2.608,0,0,0-1.089-2.081l-20.643-11.917c-.6-.347-1.089.022-1.089.823h0A2.608,2.608,0,0,0,340.711,186.768Z" transform="translate(-297.113 -159.19)" fill="#397bff"/>
        <path id="Tracé_218" data-name="Tracé 218" d="M321.342,175.585,341.983,187.5c.6.347,1.089-.02,1.089-.823h0a2.612,2.612,0,0,0-1.089-2.081l-20.641-11.917c-.6-.347-1.089.022-1.089.823h0A2.608,2.608,0,0,0,321.342,175.585Z" transform="translate(-320.253 -172.551)" fill="#397bff"/>
      </g>
      <g id="Groupe_1292" data-name="Groupe 1292" transform="translate(0 186.671)">
        <path id="Tracé_219" data-name="Tracé 219" d="M379.45,294.189l20.641,11.917c.6.349,1.091-.02,1.091-.823h0a2.606,2.606,0,0,0-1.091-2.078L379.45,291.285c-.6-.347-1.089.022-1.089.823h0A2.608,2.608,0,0,0,379.45,294.189Z" transform="translate(-250.831 -217.524)" fill="#397bff"/>
        <path id="Tracé_220" data-name="Tracé 220" d="M360.08,283.006l20.643,11.917c.6.349,1.089-.02,1.089-.823h0a2.6,2.6,0,0,0-1.089-2.078L360.08,280.1c-.6-.347-1.089.022-1.089.823h0A2.611,2.611,0,0,0,360.08,283.006Z" transform="translate(-273.972 -230.885)" fill="#397bff"/>
        <path id="Tracé_221" data-name="Tracé 221" d="M340.711,271.823l20.643,11.919c.6.347,1.089-.022,1.089-.823h0a2.6,2.6,0,0,0-1.089-2.081l-20.643-11.919c-.6-.347-1.089.022-1.089.823h0A2.6,2.6,0,0,0,340.711,271.823Z" transform="translate(-297.113 -244.245)" fill="#397bff"/>
        <path id="Tracé_222" data-name="Tracé 222" d="M321.342,260.64l20.641,11.919c.6.347,1.089-.022,1.089-.823h0a2.6,2.6,0,0,0-1.089-2.081l-20.641-11.919c-.6-.347-1.089.022-1.089.823h0A2.6,2.6,0,0,0,321.342,260.64Z" transform="translate(-320.253 -257.606)" fill="#397bff"/>
      </g>
    </g>
    <g id="Groupe_1304" data-name="Groupe 1304" transform="translate(879.092 276.787)">
      <g id="Groupe_1296" data-name="Groupe 1296" transform="translate(0 64.116)" opacity="0.3">
        <path id="Tracé_223" data-name="Tracé 223" d="M657.122,224.375V211.962l-3.435-1.912c-.97,5.86-7.866,9.72-13.631,10.524l-39.263,22.959-17.134,6.189L528.964,221.5l1.264-.729c-4.675-2.184-7.194-7.179-9.723-11.735l-3.681,2.195-2.188.615v12.734h0c0,2.432,1.6,4.866,4.811,6.716l54.8,31.637c6.415,3.7,16.853,3.7,23.271,0l54.793-31.635c3.156-1.822,4.76-4.207,4.811-6.6,0-.108,0-.213-.006-.32Z" transform="translate(-514.636 -170.829)" fill="url(#linear-gradient-24)"/>
        <path id="Tracé_224" data-name="Tracé 224" d="M601.274,219.93l-39.263,22.959L547.1,248.275v16.787a23.8,23.8,0,0,0,11.636-2.778l54.793-31.634c3.156-1.822,4.76-4.207,4.811-6.6,0-.108,0-.213-.007-.32l.009,0V211.318l-3.138-1.747h-.329C613.8,215.339,606.985,219.136,601.274,219.93Z" transform="translate(-475.855 -170.185)" fill="#0f054c" opacity="0.3"/>
        <g id="Groupe_1294" data-name="Groupe 1294">
          <path id="Tracé_225" data-name="Tracé 225" d="M574.245,271.111l-54.8-31.637c-6.415-3.7-6.415-9.731,0-13.436l54.8-31.634c6.415-3.7,16.855-3.7,23.27,0l54.8,31.637c6.415,3.7,6.415,9.731,0,13.436l-54.793,31.634C591.1,274.815,580.661,274.815,574.245,271.111Z" transform="translate(-514.637 -191.625)" fill="url(#linear-gradient-3)"/>
        </g>
        <g id="Groupe_1295" data-name="Groupe 1295" opacity="0.3">
          <path id="Tracé_226" data-name="Tracé 226" d="M574.245,271.111l-54.8-31.637c-6.415-3.7-6.415-9.731,0-13.436l54.8-31.634c6.415-3.7,16.855-3.7,23.27,0l54.8,31.637c6.415,3.7,6.415,9.731,0,13.436l-54.793,31.634C591.1,274.815,580.661,274.815,574.245,271.111Z" transform="translate(-514.637 -191.625)" fill="#0f054c"/>
        </g>
      </g>
      <g id="Groupe_1303" data-name="Groupe 1303">
        <g id="Groupe_1302" data-name="Groupe 1302">
          <path id="Tracé_227" data-name="Tracé 227" d="M584.95,262.242a21.115,21.115,0,0,1-10.328-2.465l-54.8-31.637c-2.846-1.644-4.411-3.86-4.411-6.242s1.565-4.6,4.411-6.237l54.793-31.637c5.7-3.288,14.961-3.288,20.657,0l54.8,31.637c2.846,1.642,4.413,3.858,4.413,6.24s-1.567,4.6-4.413,6.24l-54.793,31.637A21.128,21.128,0,0,1,584.95,262.242Zm-9.848-3.3c5.425,3.134,14.266,3.134,19.7,0l54.791-31.637c2.537-1.464,3.933-3.384,3.933-5.408s-1.4-3.944-3.933-5.408l-54.8-31.637c-5.43-3.134-14.266-3.136-19.7,0l-54.793,31.637c-2.535,1.462-3.933,3.382-3.933,5.406s1.4,3.946,3.933,5.41Z" transform="translate(-513.707 -139.534)" fill="#397bff"/>
          <g id="Groupe_1301" data-name="Groupe 1301">
            <path id="Tracé_228" data-name="Tracé 228" d="M657.122,206.216V187.454l-3.435-1.909c-.97,5.858-7.866,9.718-13.631,10.521l-39.263,22.961-17.134,6.187-54.694-28.226,1.264-.729c-4.675-2.184-7.194-7.179-9.723-11.735l-3.681,2.195-2.188.617v19.081h0c0,2.432,1.6,4.866,4.811,6.716l54.8,31.637c6.415,3.7,16.853,3.7,23.271,0l54.793-31.634c3.156-1.822,4.76-4.205,4.811-6.6,0-.108,0-.213-.006-.32Z" transform="translate(-514.636 -135.992)" fill="#397bff" opacity="0.4"/>
            <g id="Groupe_1300" data-name="Groupe 1300">
              <g id="Groupe_1299" data-name="Groupe 1299">
                <path id="Tracé_229" data-name="Tracé 229" d="M657.122,195.162V182.747l-3.435-1.909c-.97,5.86-7.866,9.72-13.631,10.521L600.792,214.32l-17.134,6.187-54.694-28.224,1.264-.731c-4.675-2.184-7.194-7.179-9.723-11.735l-3.681,2.2-2.188.615V195.36h0c0,2.434,1.6,4.866,4.811,6.718l54.8,31.637c6.415,3.7,16.853,3.7,23.271,0l54.793-31.637c3.156-1.822,4.76-4.205,4.811-6.6,0-.105,0-.213-.006-.32Z" transform="translate(-514.636 -141.616)" fill="url(#linear-gradient-24)"/>
                <path id="Tracé_230" data-name="Tracé 230" d="M601.274,190.714l-39.263,22.961L547.1,219.061v16.785a23.772,23.772,0,0,0,11.636-2.776l54.793-31.637c3.156-1.822,4.76-4.205,4.811-6.6,0-.105,0-.213-.007-.32l.009,0V182.1l-3.138-1.745h-.329C613.8,186.122,606.985,189.919,601.274,190.714Z" transform="translate(-475.855 -140.971)" fill="#0f054c" opacity="0.3"/>
                <g id="Groupe_1297" data-name="Groupe 1297">
                  <path id="Tracé_231" data-name="Tracé 231" d="M574.245,241.9l-54.8-31.637c-6.415-3.7-6.415-9.731,0-13.436l54.8-31.637c6.415-3.7,16.855-3.7,23.27,0l54.8,31.637c6.415,3.7,6.415,9.729,0,13.434L597.516,241.9C591.1,245.6,580.661,245.6,574.245,241.9Z" transform="translate(-514.637 -162.411)" fill="url(#linear-gradient-3)"/>
                </g>
                <g id="Groupe_1298" data-name="Groupe 1298" transform="translate(0.004 41.904)">
                  <path id="Tracé_232" data-name="Tracé 232" d="M652.307,187.449l-54.793,31.637c-6.417,3.7-16.855,3.7-23.27,0l-54.8-31.637c-2.866-1.657-4.449-3.777-4.754-5.945-.375,2.684,1.207,5.443,4.754,7.493l54.8,31.634c6.415,3.7,16.853,3.7,23.27,0L652.307,189c3.549-2.048,5.131-4.806,4.754-7.491C656.756,183.675,655.175,185.795,652.307,187.449Z" transform="translate(-514.638 -181.504)" fill="#fff"/>
                </g>
              </g>
            </g>
          </g>
        </g>
      </g>
    </g>
    <g id="Groupe_1315" data-name="Groupe 1315" transform="translate(209.578 536.798)">
      <g id="Groupe_1307" data-name="Groupe 1307" transform="translate(0 64.116)" opacity="0.3">
        <path id="Tracé_233" data-name="Tracé 233" d="M352.063,342.848V330.433l-3.435-1.909c-.97,5.86-7.866,9.72-13.631,10.524l-39.263,22.959L278.6,368.2l-54.694-28.226,1.262-.729c-4.673-2.184-7.192-7.179-9.72-11.737l-3.683,2.2-2.186.615v12.734h0c0,2.432,1.6,4.863,4.811,6.716l54.8,31.637c6.415,3.7,16.853,3.7,23.27,0l54.793-31.634c3.156-1.822,4.76-4.207,4.811-6.6,0-.108,0-.215-.007-.32Z" transform="translate(-209.577 -289.302)" fill="url(#linear-gradient-24)"/>
        <path id="Tracé_234" data-name="Tracé 234" d="M296.215,338.4l-39.263,22.959-14.913,5.386v16.787a23.8,23.8,0,0,0,11.636-2.778l54.793-31.634c3.156-1.822,4.76-4.207,4.811-6.6,0-.108,0-.215-.007-.32l.009,0V329.788l-3.138-1.745h-.329C308.743,333.811,301.926,337.605,296.215,338.4Z" transform="translate(-170.796 -288.657)" fill="#0f054c" opacity="0.3"/>
        <g id="Groupe_1305" data-name="Groupe 1305">
          <path id="Tracé_235" data-name="Tracé 235" d="M269.187,389.583l-54.8-31.637c-6.415-3.7-6.415-9.731,0-13.436l54.8-31.634c6.415-3.7,16.853-3.7,23.27,0l54.8,31.637c6.415,3.7,6.415,9.731,0,13.434l-54.793,31.637C286.04,393.287,275.6,393.287,269.187,389.583Z" transform="translate(-209.578 -310.097)" fill="url(#linear-gradient-3)"/>
        </g>
        <g id="Groupe_1306" data-name="Groupe 1306" opacity="0.3">
          <path id="Tracé_236" data-name="Tracé 236" d="M269.187,389.583l-54.8-31.637c-6.415-3.7-6.415-9.731,0-13.436l54.8-31.634c6.415-3.7,16.853-3.7,23.27,0l54.8,31.637c6.415,3.7,6.415,9.731,0,13.434l-54.793,31.637C286.04,393.287,275.6,393.287,269.187,389.583Z" transform="translate(-209.578 -310.097)" fill="#0f054c"/>
        </g>
      </g>
      <g id="Groupe_1314" data-name="Groupe 1314">
        <g id="Groupe_1313" data-name="Groupe 1313">
          <path id="Tracé_237" data-name="Tracé 237" d="M279.891,380.714a21.115,21.115,0,0,1-10.328-2.465l-54.8-31.637c-2.844-1.642-4.411-3.858-4.411-6.24s1.567-4.6,4.411-6.242l54.8-31.634c5.693-3.29,14.959-3.286,20.654,0l54.8,31.637c2.842,1.642,4.409,3.858,4.409,6.24s-1.567,4.6-4.409,6.24l-54.8,31.637A21.115,21.115,0,0,1,279.891,380.714Zm-9.848-3.3c5.43,3.132,14.261,3.134,19.7,0l54.8-31.637c2.535-1.464,3.931-3.384,3.931-5.408s-1.4-3.944-3.931-5.408l-54.8-31.637c-5.432-3.138-14.263-3.138-19.7,0l-54.8,31.635c-2.535,1.464-3.929,3.384-3.929,5.41s1.394,3.944,3.929,5.408Z" transform="translate(-208.648 -258.006)" fill="#397bff"/>
          <g id="Groupe_1312" data-name="Groupe 1312">
            <path id="Tracé_238" data-name="Tracé 238" d="M352.063,324.689V305.926l-3.435-1.909c-.97,5.858-7.866,9.718-13.631,10.521L295.733,337.5,278.6,343.686,223.905,315.46l1.262-.729c-4.673-2.184-7.192-7.179-9.72-11.735l-3.683,2.195-2.186.615v19.083h0c0,2.432,1.6,4.866,4.811,6.716l54.8,31.637c6.415,3.7,16.853,3.7,23.27,0l54.793-31.634c3.156-1.822,4.76-4.207,4.811-6.6,0-.108,0-.213-.007-.32Z" transform="translate(-209.577 -254.464)" fill="#397bff" opacity="0.4"/>
            <g id="Groupe_1311" data-name="Groupe 1311">
              <g id="Groupe_1310" data-name="Groupe 1310">
                <path id="Tracé_239" data-name="Tracé 239" d="M352.063,313.634V301.219l-3.435-1.909c-.97,5.86-7.866,9.72-13.631,10.521l-39.263,22.961L278.6,338.979l-54.694-28.224,1.262-.731c-4.673-2.184-7.192-7.179-9.72-11.735l-3.683,2.2-2.186.614v12.732h0c0,2.432,1.6,4.866,4.811,6.718l54.8,31.637c6.415,3.7,16.853,3.7,23.27,0L347.25,320.55c3.156-1.822,4.76-4.205,4.811-6.6,0-.105,0-.213-.007-.32Z" transform="translate(-209.577 -260.088)" fill="url(#linear-gradient-24)"/>
                <path id="Tracé_240" data-name="Tracé 240" d="M296.215,309.186l-39.263,22.961-14.913,5.386v16.785a23.8,23.8,0,0,0,11.636-2.776L308.468,319.9c3.156-1.822,4.76-4.205,4.811-6.6,0-.105,0-.213-.007-.32l.009,0V300.574l-3.138-1.745h-.329C308.743,304.594,301.926,308.391,296.215,309.186Z" transform="translate(-170.796 -259.442)" fill="#0f054c" opacity="0.3"/>
                <g id="Groupe_1308" data-name="Groupe 1308">
                  <path id="Tracé_241" data-name="Tracé 241" d="M269.187,360.369l-54.8-31.637c-6.415-3.7-6.415-9.731,0-13.436l54.8-31.637c6.415-3.7,16.853-3.7,23.27,0l54.8,31.634c6.415,3.7,6.415,9.731,0,13.436l-54.793,31.637C286.04,364.071,275.6,364.071,269.187,360.369Z" transform="translate(-209.578 -280.883)" fill="url(#linear-gradient-3)"/>
                </g>
                <g id="Groupe_1309" data-name="Groupe 1309" transform="translate(0.004 41.904)">
                  <path id="Tracé_242" data-name="Tracé 242" d="M347.248,305.921l-54.793,31.637c-6.417,3.7-16.855,3.7-23.271,0l-54.8-31.637c-2.866-1.657-4.449-3.777-4.754-5.945-.375,2.684,1.207,5.443,4.754,7.491l54.8,31.637c6.415,3.7,16.853,3.7,23.271,0l54.793-31.634c3.549-2.048,5.131-4.806,4.754-7.491C351.7,302.147,350.117,304.267,347.248,305.921Z" transform="translate(-209.579 -299.976)" fill="#fff"/>
                </g>
              </g>
            </g>
          </g>
        </g>
      </g>
    </g>
    <g id="Groupe_1325" data-name="Groupe 1325" transform="translate(221.64 458.467)">
      <g id="Groupe_1323" data-name="Groupe 1323">
        <g id="Groupe_1322" data-name="Groupe 1322">
          <g id="Groupe_1316" data-name="Groupe 1316" transform="translate(0 86.847)">
            <path id="Tracé_243" data-name="Tracé 243" d="M275.119,350.621a18.324,18.324,0,0,1-9.161-2.447l-49.113-28.242a3.54,3.54,0,0,1,0-6.132l46.218-26.288a20.732,20.732,0,0,1,20.652.011l47.948,27.568a3.54,3.54,0,0,1,0,6.132l-47.392,26.953A18.307,18.307,0,0,1,275.119,350.621Zm-1.74-64.386a19.17,19.17,0,0,0-9.584,2.557L217.576,315.08a2.067,2.067,0,0,0,0,3.575L266.693,346.9a16.887,16.887,0,0,0,16.844,0l47.392-26.953a2.065,2.065,0,0,0,0-3.575L282.98,288.8h0A19.162,19.162,0,0,0,273.379,286.235Z" transform="translate(-215.074 -284.763)" fill="#397bff"/>
          </g>
          <g id="Groupe_1317" data-name="Groupe 1317" transform="translate(0.737 60.003)" opacity="0.11">
            <path id="Tracé_244" data-name="Tracé 244" d="M282.946,275.2a19.942,19.942,0,0,0-19.921-.011L216.811,301.48a2.8,2.8,0,0,0,0,4.855l49.115,28.242a17.578,17.578,0,0,0,17.58,0l47.388-26.951a2.8,2.8,0,0,0,0-4.855Z" transform="translate(-215.41 -272.532)" fill="url(#linear-gradient-32)"/>
          </g>
          <g id="Groupe_1318" data-name="Groupe 1318" transform="translate(0.737 40.002)" opacity="0.11">
            <path id="Tracé_245" data-name="Tracé 245" d="M282.946,266.091a19.937,19.937,0,0,0-19.921-.011l-46.214,26.288a2.8,2.8,0,0,0,0,4.855l49.115,28.241a17.578,17.578,0,0,0,17.58,0l47.388-26.951a2.8,2.8,0,0,0,0-4.855Z" transform="translate(-215.41 -263.419)" fill="url(#linear-gradient-32)"/>
          </g>
          <g id="Groupe_1319" data-name="Groupe 1319" transform="translate(0.737 20.001)" opacity="0.11">
            <path id="Tracé_246" data-name="Tracé 246" d="M282.946,256.976a19.942,19.942,0,0,0-19.921-.009l-46.214,26.288a2.8,2.8,0,0,0,0,4.855l49.115,28.241a17.578,17.578,0,0,0,17.58,0L330.893,289.4a2.8,2.8,0,0,0,0-4.857Z" transform="translate(-215.41 -254.305)" fill="url(#linear-gradient-32)"/>
          </g>
          <g id="Groupe_1320" data-name="Groupe 1320" transform="translate(0.737 0.001)" opacity="0.11">
            <path id="Tracé_247" data-name="Tracé 247" d="M282.946,247.863a19.942,19.942,0,0,0-19.921-.009L216.811,274.14a2.805,2.805,0,0,0,0,4.857l49.115,28.242a17.578,17.578,0,0,0,17.58,0l47.388-26.951a2.8,2.8,0,0,0,0-4.857Z" transform="translate(-215.41 -245.192)" fill="url(#linear-gradient-32)"/>
          </g>
          <path id="Tracé_248" data-name="Tracé 248" d="M330.893,275.431l-47.948-27.568a19.937,19.937,0,0,0-19.921-.009L216.81,274.14a2.781,2.781,0,0,0-1.4,2.43v60a2.777,2.777,0,0,0,1.4,2.427l49.115,28.241a17.578,17.578,0,0,0,17.58,0l47.388-26.951a2.777,2.777,0,0,0,1.4-2.427v-60h0A2.778,2.778,0,0,0,330.893,275.431Z" transform="translate(-214.673 -245.192)" opacity="0.5" fill="url(#linear-gradient-36)"/>
          <g id="Groupe_1321" data-name="Groupe 1321" transform="translate(0.737 0.001)" opacity="0.11">
            <path id="Tracé_249" data-name="Tracé 249" d="M282.946,247.863a19.942,19.942,0,0,0-19.921-.009L216.811,274.14a2.805,2.805,0,0,0,0,4.857l49.115,28.242a17.578,17.578,0,0,0,17.58,0l47.388-26.951a2.8,2.8,0,0,0,0-4.857Z" transform="translate(-215.41 -245.192)" fill="url(#linear-gradient-32)"/>
          </g>
          <path id="Tracé_250" data-name="Tracé 250" d="M330.893,261.2,283.5,288.147a17.578,17.578,0,0,1-17.58,0L216.81,259.906a2.781,2.781,0,0,1-1.04-1.047,2.809,2.809,0,0,0,1.04,3.81l49.115,28.242a17.578,17.578,0,0,0,17.58,0l47.388-26.951a2.8,2.8,0,0,0,1.04-3.81A2.782,2.782,0,0,1,330.893,261.2Z" transform="translate(-214.672 -228.864)" fill="#397bff"/>
        </g>
      </g>
      <g id="Groupe_1324" data-name="Groupe 1324" transform="translate(27.642 12.305)">
        <path id="Tracé_251" data-name="Tracé 251" d="M258.327,286.085l-29.922-17.275,29.921-17.275,29.922,17.275Z" transform="translate(-226.789 -249.919)" fill="#7bfff5" opacity="0.4"/>
        <path id="Tracé_252" data-name="Tracé 252" d="M259.207,288.584a1.642,1.642,0,0,1-.81-.217l-29.92-17.274a1.62,1.62,0,0,1,0-2.8l29.92-17.277a1.64,1.64,0,0,1,1.62,0l29.92,17.277a1.62,1.62,0,0,1,0,2.8l-29.92,17.274A1.642,1.642,0,0,1,259.207,288.584Zm-26.685-18.894L259.207,285.1l26.683-15.407-26.683-15.4Z" transform="translate(-227.669 -250.799)" fill="#397bff"/>
      </g>
    </g>
  </g>
</svg>
