<svg xmlns="http://www.w3.org/2000/svg" xmlns:xlink="http://www.w3.org/1999/xlink" width="149.942" height="148.442" viewBox="0 0 149.942 148.442">
  <defs>
    <filter id="Soustraction_1" x="0" y="7.943" width="133" height="133" filterUnits="userSpaceOnUse">
      <feOffset input="SourceAlpha"/>
      <feGaussianBlur stdDeviation="0.5" result="blur"/>
      <feFlood flood-color="#4364f7"/>
      <feComposite operator="in" in2="blur"/>
      <feComposite in="SourceGraphic"/>
    </filter>
  </defs>
  <g id="Groupe_2462" data-name="Groupe 2462" transform="translate(1.5)">
    <path id="Soustraction_2" data-name="Soustraction 2" d="M65,0A65,65,0,1,1,0,65,65,65,0,0,1,65,0Z" transform="translate(18 0.443)" fill="#4364f7"/>
    <path id="Soustraction_27" data-name="Soustraction 27" d="M65,130A65.017,65.017,0,0,1,39.7,5.108,65.017,65.017,0,0,1,90.3,124.892,64.591,64.591,0,0,1,65,130ZM51.739,70.366a4.032,4.032,0,0,0-3.979,3.978A13.069,13.069,0,0,0,60.6,87.6h.425v1.327a3.978,3.978,0,1,0,7.956,0V87.6h1.592a11.9,11.9,0,0,0,11.67-12.093c0-7.856-4.541-10.3-7.957-11.458l-5.3-1.856V50.422H69.4a5.111,5.111,0,0,1,4.88,5.3,3.978,3.978,0,1,0,7.957,0A13.069,13.069,0,0,0,69.4,42.465h-.425V41.139a3.978,3.978,0,1,0-7.956,0v1.326H59.431A11.9,11.9,0,0,0,47.76,54.559c0,7.746,4.541,10.248,7.957,11.457l5.3,1.857V79.648H60.6a5.111,5.111,0,0,1-4.88-5.3A4.031,4.031,0,0,0,51.739,70.366ZM70.569,79.6H68.978V70.631l2.706.954c1.849.652,2.6,1.033,2.6,3.926A3.964,3.964,0,0,1,70.569,79.6ZM61.022,59.333h0l-2.7-.9c-1.849-.653-2.6-1.033-2.6-3.925a4.345,4.345,0,0,1,1.1-2.924,3.509,3.509,0,0,1,2.613-1.213h1.591v8.963Z" transform="translate(0 9.443)" fill="#fff"/>
    <g transform="matrix(1, 0, 0, 1, -1.5, 0)" filter="url(#Soustraction_1)">
      <path id="Soustraction_1-2" data-name="Soustraction 1" d="M65,130A65.017,65.017,0,0,1,39.7,5.108,65.017,65.017,0,0,1,90.3,124.892,64.591,64.591,0,0,1,65,130ZM51.739,70.366a4.032,4.032,0,0,0-3.979,3.978A13.069,13.069,0,0,0,60.6,87.6h.425v1.327a3.978,3.978,0,1,0,7.956,0V87.6h1.592a11.9,11.9,0,0,0,11.67-12.093c0-7.856-4.541-10.3-7.957-11.458l-5.3-1.856V50.422H69.4a5.111,5.111,0,0,1,4.88,5.3,3.978,3.978,0,1,0,7.957,0A13.069,13.069,0,0,0,69.4,42.465h-.425V41.139a3.978,3.978,0,1,0-7.956,0v1.326H59.431A11.9,11.9,0,0,0,47.76,54.559c0,7.746,4.541,10.248,7.957,11.457l5.3,1.857V79.648H60.6a5.111,5.111,0,0,1-4.88-5.3A4.031,4.031,0,0,0,51.739,70.366ZM70.569,79.6H68.978V70.631l2.706.954c1.849.652,2.6,1.033,2.6,3.926A3.964,3.964,0,0,1,70.569,79.6ZM61.022,59.333h0l-2.7-.9c-1.849-.653-2.6-1.033-2.6-3.925a4.345,4.345,0,0,1,1.1-2.924,3.509,3.509,0,0,1,2.613-1.213h1.591v8.963Z" transform="translate(1.5 9.44)" fill="rgba(67,100,247,0.2)"/>
    </g>
    <path id="Vector" d="M0,0H148.442V148.442H0Z" fill="none"/>
  </g>
</svg>
