<svg id="vuesax_bulk_edit" data-name="vuesax/bulk/edit" xmlns="http://www.w3.org/2000/svg" width="37.391" height="37.391" viewBox="0 0 37.391 37.391">
  <g id="edit">
    <path id="Vector" d="M10.309,2.127c-2.789-2.8-5.515-2.867-8.382,0L.167,3.872a.568.568,0,0,0-.14.576,11.681,11.681,0,0,0,7.961,7.961.639.639,0,0,0,.171.016.6.6,0,0,0,.421-.171l1.729-1.745a5.987,5.987,0,0,0,2.119-4.16A6.11,6.11,0,0,0,10.309,2.127Z" transform="translate(22.439 2.516)" fill="#0575e6"/>
    <path id="Vector-2" data-name="Vector" d="M17.408,7.914a12.452,12.452,0,0,1-1.2-.639c-.312-.187-.623-.389-.919-.608a8.131,8.131,0,0,1-.81-.623,1.6,1.6,0,0,1-.249-.218,11.222,11.222,0,0,1-1.48-1.5,1.194,1.194,0,0,1-.2-.265,5.818,5.818,0,0,1-.592-.795,7.457,7.457,0,0,1-.561-.857,12.284,12.284,0,0,1-.623-1.184c-.2-.436-.358-.841-.5-1.231L1.891,8.382A4.782,4.782,0,0,0,.707,10.719l-.67,4.643A2.916,2.916,0,0,0,.769,17.87a2.763,2.763,0,0,0,1.994.779c.171,0,.343-.016.514-.031L7.9,17.963a4.655,4.655,0,0,0,2.337-1.184L18.623,8.4C18.234,8.273,17.844,8.1,17.408,7.914Z" transform="translate(10.417 8.319)" fill="#0575e6"/>
    <path id="Vector-3" data-name="Vector" d="M0,0H37.391V37.391H0Z" fill="none" opacity="0"/>
  </g>
</svg>
