<svg id="Groupe_2557" data-name="Groupe 2557" xmlns="http://www.w3.org/2000/svg" width="192.056" height="192.056" viewBox="0 0 192.056 192.056">
  <g id="Groupe_2552" data-name="Groupe 2552">
    <path id="Vector" d="M160.791,0V108.087c0,16.972-8.933,25.905-25.905,25.905H25.905C8.933,133.992,0,125.06,0,108.087V0Z" transform="translate(15.632 6.7)" fill="rgba(57,123,255,0.5)"/>
    <g id="Group">
      <path id="Vector-2" data-name="Vector" d="M185.356,13.4H6.7A6.748,6.748,0,0,1,0,6.7,6.748,6.748,0,0,1,6.7,0H185.356a6.748,6.748,0,0,1,6.7,6.7A6.748,6.748,0,0,1,185.356,13.4Z" fill="#397bff"/>
    </g>
    <path id="Vector-3" data-name="Vector" d="M84.167,47.7a6.724,6.724,0,0,1-5.985,3.662,6.823,6.823,0,0,1-2.948-.715L42.451,34.3,9.667,50.649a6.823,6.823,0,0,1-2.948.715A6.724,6.724,0,0,1,.734,47.7a6.61,6.61,0,0,1,3.037-9.022l31.979-15.99V0h13.4V22.689L81.13,38.679A6.61,6.61,0,0,1,84.167,47.7Z" transform="translate(53.579 140.692)" fill="#397bff"/>
    <path id="Vector-4" data-name="Vector" d="M3.978,18.935A4.007,4.007,0,0,1,0,14.957V3.978A4.007,4.007,0,0,1,3.978,0,4.007,4.007,0,0,1,7.956,3.978V14.957A3.973,3.973,0,0,1,3.978,18.935Z" transform="translate(66.018 94.707)" fill="#397bff"/>
    <path id="Vector-5" data-name="Vector" d="M3.978,29.967A4.007,4.007,0,0,1,0,25.989V3.978A4.007,4.007,0,0,1,3.978,0,4.007,4.007,0,0,1,7.956,3.978V25.989A3.973,3.973,0,0,1,3.978,29.967Z" transform="translate(93.175 83.675)" fill="#397bff"/>
    <path id="Vector-6" data-name="Vector" d="M3.978,40.946A4.007,4.007,0,0,1,0,36.968V3.978A4.007,4.007,0,0,1,3.978,0,4.007,4.007,0,0,1,7.956,3.978v32.99A3.939,3.939,0,0,1,3.978,40.946Z" transform="translate(120.333 72.697)" fill="#397bff"/>
    <path id="Vector-7" data-name="Vector" d="M62.278,3.819a4.777,4.777,0,0,0-.159-.849c-.053-.212-.106-.477-.159-.689-.106-.212-.265-.371-.371-.583a3.077,3.077,0,0,0-.53-.636c-.053-.053-.053-.106-.106-.106C60.793.849,60.634.8,60.475.69a3.382,3.382,0,0,0-.743-.424,4.228,4.228,0,0,0-.8-.159A2.256,2.256,0,0,0,58.353,0H42.813a4.007,4.007,0,0,0-3.978,3.978,4.007,4.007,0,0,0,3.978,3.978h6.63a96.256,96.256,0,0,1-46.409,27.1A4.008,4.008,0,0,0,.117,39.885a3.969,3.969,0,0,0,3.872,3.023,5.843,5.843,0,0,0,.955-.106A103.6,103.6,0,0,0,54.322,14.373v5.145a3.978,3.978,0,1,0,7.956,0V3.819Z" transform="translate(66.01 40.45)" fill="#397bff"/>
  </g>
</svg>
