<svg xmlns="http://www.w3.org/2000/svg" width="37.393" height="37.393" viewBox="0 0 37.393 37.393">
  <g id="Groupe_2950" data-name="Groupe 2950" transform="translate(-1462.264 -61.998)">
    <g id="vuesax_bulk_notification" data-name="vuesax/bulk/notification" transform="translate(1291.264 -126.002)">
      <g id="notification" transform="translate(171 188)">
        <path id="Vector" d="M23.416,18.057l-1.558-2.586a5.788,5.788,0,0,1-.623-2.306V9.224a9.224,9.224,0,0,0-18.447,0v3.942a5.649,5.649,0,0,1-.623,2.29l-1.574,2.6a3.641,3.641,0,0,0,2.041,5.5,29.139,29.139,0,0,0,9.379,1.527,29.555,29.555,0,0,0,9.379-1.511,3.757,3.757,0,0,0,2.025-5.515Z" transform="translate(6.716 4.518)" fill="#0f2087" opacity="0.4"/>
        <path id="Vector-2" data-name="Vector" d="M6.933,2.057A9.5,9.5,0,0,0,3.459,1.4,9.168,9.168,0,0,0,0,2.057,3.9,3.9,0,0,1,3.459,0,3.924,3.924,0,0,1,6.933,2.057Z" transform="translate(15.269 3.116)" fill="#0f2087"/>
        <path id="Vector-3" data-name="Vector" d="M8.8.016a4.7,4.7,0,0,1-4.409,3.1,4.62,4.62,0,0,1-3.3-1.387A4.3,4.3,0,0,1,0,0C.2.031.405.047.623.078.982.125,1.355.171,1.729.2c.888.078,1.792.125,2.7.125C5.313.327,6.2.28,7.073.2,7.4.171,7.728.156,8.039.109,8.289.078,8.538.047,8.8.016Z" transform="translate(14.303 31.16)" fill="#0f2087"/>
        <path id="Vector-4" data-name="Vector" d="M0,0H37.393V37.393H0Z" fill="none" opacity="0"/>
      </g>
    </g>
    <path id="Vector-5" data-name="Vector" d="M6,3A3,3,0,1,1,3,0,3,3,0,0,1,6,3Z" transform="translate(1486 67)" fill="#0f2087"/>
  </g>
</svg>
