<svg xmlns="http://www.w3.org/2000/svg" width="169.004" height="192.824" viewBox="0 0 169.004 192.824">
  <g id="Groupe_3015" data-name="Groupe 3015" transform="translate(-1571.855 -2404.498)">
    <path id="Vector" d="M154.58,124.366a45.182,45.182,0,0,1-30.846,11.871h-94c-39.6-2.822-39.7-60.328,0-63.15h.389C2.98-2.421,117.7-32.489,130.838,46.717,167.521,51.387,182.409,100.137,154.58,124.366Z" transform="translate(1571.855 2404.498)" fill="rgba(148,148,224,0.5)"/>
    <g id="Group" transform="translate(1590.221 2540.639)">
      <path id="Union_5" data-name="Union 5" d="M73.89,56.683H8a8,8,0,0,1-8-8v-.2a8,8,0,0,1,8-8H57.694V0h16.2V40.487h49.694a8,8,0,0,1,8,8v.2a8,8,0,0,1-8,8Z" transform="translate(0)" fill="#9494e0"/>
    </g>
    <path id="Vector-2" data-name="Vector" d="M35.979,9.426V26.516c0,6.764-2.7,9.462-9.462,9.462H9.426C2.7,35.978,0,33.279,0,26.516V9.426C0,2.7,2.7,0,9.426,0h17.09C33.28,0,35.979,2.7,35.979,9.426Z" transform="translate(1627.32 2477.868)" fill="#9494e0" opacity="0.6"/>
    <path id="Vector-3" data-name="Vector" d="M35.979,9.426V26.516c0,6.764-2.7,9.462-9.462,9.462H9.426C2.7,35.978,0,33.279,0,26.516V9.426C0,2.7,2.7,0,9.426,0h17.09C33.28,0,35.979,2.7,35.979,9.426Z" transform="translate(1638.962 2465.771)" fill="#9494e0" opacity="0.7"/>
    <path id="Vector-4" data-name="Vector" d="M35.979,9.426V26.516c0,6.764-2.7,9.462-9.462,9.462H9.426C2.7,35.978,0,33.279,0,26.516V9.426C0,2.7,2.7,0,9.426,0h17.09C33.28,0,35.979,2.7,35.979,9.426Z" transform="translate(1649.454 2454.457)" fill="#9494e0"/>
  </g>
</svg>
