<svg xmlns="http://www.w3.org/2000/svg" width="42.503" height="42.503" viewBox="0 0 42.503 42.503">
  <g id="Groupe_1" data-name="Groupe 1" transform="translate(-529.25 -48.246)">
    <path id="Vector" d="M42.5,21.252A21.252,21.252,0,1,1,21.252,0,21.252,21.252,0,0,1,42.5,21.252Z" transform="translate(529.25 48.246)" fill="#9494e0" opacity="0.4"/>
    <path id="Vector-2" data-name="Vector" d="M16.465,6.37H5.435L9.09,2.715A1.593,1.593,0,0,0,6.838.462L.462,6.838a1.6,1.6,0,0,0,0,2.253l6.375,6.375a1.59,1.59,0,0,0,2.253,0,1.6,1.6,0,0,0,0-2.253L5.435,9.558h11.03a1.594,1.594,0,0,0,0-3.188Z" transform="translate(541.475 61.534)" fill="#9494e0"/>
  </g>
</svg>
