<svg id="Groupe_2558" data-name="Groupe 2558" xmlns="http://www.w3.org/2000/svg" width="192.848" height="192.055" viewBox="0 0 192.848 192.055">
  <path id="Union_1" data-name="Union 1" d="M56.272,192.055a7.239,7.239,0,0,1,0-14.478H79.629a9.681,9.681,0,0,0,9.652-9.652v-9.363a9.68,9.68,0,0,0-9.652-9.651H42.566A42.573,42.573,0,0,1,0,106.345V42.566A42.635,42.635,0,0,1,42.566,0h107.62a42.635,42.635,0,0,1,42.566,42.566v61.849h.1v1.931a42.573,42.573,0,0,1-42.566,42.566H113.508a9.68,9.68,0,0,0-9.652,9.651v9.363a9.681,9.681,0,0,0,9.652,9.652h23.358a7.239,7.239,0,1,1,0,14.478Z" transform="translate(0)" fill="rgba(148,148,224,0.5)"/>
  <path id="Vector" d="M5.276,11.795,27.64.594a5.48,5.48,0,0,1,7.951,4.893v21.14a9.547,9.547,0,0,1-5.314,8.6L7.914,46.392a5.475,5.475,0,0,1-2.447.573A5.217,5.217,0,0,1,2.6,46.124,5.4,5.4,0,0,1,0,41.46V20.32A9.415,9.415,0,0,1,5.276,11.795Z" transform="translate(100.247 63.946)" fill="#9494e0"/>
  <path id="Vector-2" data-name="Vector" d="M59.063,13.991,35.017,1.032a8.546,8.546,0,0,0-8.143,0L2.829,13.991a5.646,5.646,0,0,0,0,9.787l24.046,12.96a8.514,8.514,0,0,0,4.052,1.032,8.4,8.4,0,0,0,4.052-1.032l24.046-12.96a5.515,5.515,0,0,0,2.829-4.893A5.408,5.408,0,0,0,59.063,13.991Z" transform="translate(65.458 33.363)" fill="#9494e0"/>
  <path id="Vector-3" data-name="Vector" d="M30.315,11.795,7.952.594A5.454,5.454,0,0,0,2.6.823,5.4,5.4,0,0,0,0,5.487v21.14a9.547,9.547,0,0,0,5.314,8.6L27.677,46.392a5.475,5.475,0,0,0,2.447.573,5.217,5.217,0,0,0,2.867-.841,5.4,5.4,0,0,0,2.6-4.664V20.32A9.415,9.415,0,0,0,30.315,11.795Z" transform="translate(58.08 62.817)" fill="#9494e0"/>
</svg>
