<svg xmlns="http://www.w3.org/2000/svg" width="37.333" height="37.333" viewBox="0 0 37.333 37.333">
  <g id="vuesax_bulk_house" data-name="vuesax/bulk/house" transform="translate(-236 -188)">
    <g id="house" transform="translate(236 188)">
      <path id="Vector" d="M28.078,11.585v18.7H0L.078,11.569a3.087,3.087,0,0,1,1.2-2.442L12.164.665a3.085,3.085,0,0,1,3.827,0l2.084,1.618,6.891,5.351L26.88,9.127A3.1,3.1,0,0,1,28.078,11.585Z" transform="translate(4.589 3.939)" fill="#8993b9"/>
      <path id="Vector-2" data-name="Vector" d="M0,0H37.333V37.333H0Z" fill="none" opacity="0"/>
      <g id="Group" transform="translate(1.944 33.055)">
        <path id="Vector-3" data-name="Vector" d="M32.278,2.333H1.167A1.175,1.175,0,0,1,0,1.167,1.175,1.175,0,0,1,1.167,0H32.278a1.175,1.175,0,0,1,1.167,1.167A1.175,1.175,0,0,1,32.278,2.333Z" fill="#021b79"/>
      </g>
      <path id="Vector-4" data-name="Vector" d="M5.444,0H2.333A2.33,2.33,0,0,0,0,2.333V7.778H7.778V2.333A2.33,2.33,0,0,0,5.444,0Z" transform="translate(14.778 26.444)" fill="#021b79"/>
      <path id="Vector-5" data-name="Vector" d="M4.667,5.444H1.556A1.56,1.56,0,0,1,0,3.889V1.556A1.56,1.56,0,0,1,1.556,0H4.667A1.56,1.56,0,0,1,6.222,1.556V3.889A1.56,1.56,0,0,1,4.667,5.444Z" transform="translate(10.111 15.944)" fill="#021b79"/>
      <path id="Vector-6" data-name="Vector" d="M4.667,5.444H1.556A1.56,1.56,0,0,1,0,3.889V1.556A1.56,1.56,0,0,1,1.556,0H4.667A1.56,1.56,0,0,1,6.222,1.556V3.889A1.56,1.56,0,0,1,4.667,5.444Z" transform="translate(21 15.944)" fill="#021b79"/>
      <path id="Vector-7" data-name="Vector" d="M6.891,5.351,0,0H5.3A1.547,1.547,0,0,1,6.86,1.54Z" transform="translate(22.664 6.222)" fill="#021b79"/>
    </g>
  </g>
</svg>
