<svg xmlns="http://www.w3.org/2000/svg" xmlns:xlink="http://www.w3.org/1999/xlink" width="260.498" height="197.746" viewBox="0 0 260.498 197.746">
  <defs>
    <linearGradient id="linear-gradient" x1="-1.538" y1="0.545" x2="1.462" y2="0.479" gradientUnits="objectBoundingBox">
      <stop offset="0" stop-color="#4364f7"/>
      <stop offset="1" stop-color="#9494e0"/>
    </linearGradient>
    <linearGradient id="linear-gradient-2" x1="-0.553" y1="0.654" x2="0.997" y2="0.428" xlink:href="#linear-gradient"/>
    <linearGradient id="linear-gradient-3" x1="0.425" y1="1.197" x2="0.687" y2="-0.41" xlink:href="#linear-gradient"/>
    <radialGradient id="radial-gradient" cx="0.5" cy="0.5" r="0.5" gradientTransform="translate(0)" gradientUnits="objectBoundingBox">
      <stop offset="0" stop-color="#080c22"/>
      <stop offset="0.679" stop-color="#100b37"/>
      <stop offset="0.774" stop-color="#4e01de"/>
      <stop offset="0.888" stop-color="#030d14"/>
    </radialGradient>
    <filter id="Ellipse_178" x="56.146" y="100.696" width="59.59" height="59.589" filterUnits="userSpaceOnUse">
      <feOffset input="SourceAlpha"/>
      <feGaussianBlur stdDeviation="1.417" result="blur"/>
      <feFlood flood-color="#7c00ff" flood-opacity="0.851"/>
      <feComposite operator="in" in2="blur"/>
      <feComposite in="SourceGraphic"/>
    </filter>
    <filter id="Ellipse_183" x="137.486" y="100.696" width="59.59" height="59.589" filterUnits="userSpaceOnUse">
      <feOffset input="SourceAlpha"/>
      <feGaussianBlur stdDeviation="1.417" result="blur-2"/>
      <feFlood flood-color="#7c00ff" flood-opacity="0.851"/>
      <feComposite operator="in" in2="blur-2"/>
      <feComposite in="SourceGraphic"/>
    </filter>
  </defs>
  <g id="Groupe_2989" data-name="Groupe 2989" transform="translate(-1031.746 -131.138)">
    <g id="Groupe_2982" data-name="Groupe 2982">
      <path id="Tracé_6112" data-name="Tracé 6112" d="M1157.778,200.977V145.633h8.434v55.344" fill="url(#linear-gradient)"/>
      <path id="Tracé_6113" data-name="Tracé 6113" d="M1172.8,141.943a10.806,10.806,0,1,1-10.805-10.8A10.8,10.8,0,0,1,1172.8,141.943Z" fill="url(#linear-gradient-2)"/>
      <path id="Tracé_6114" data-name="Tracé 6114" d="M1169.506,137.726a3.294,3.294,0,1,1-3.294-3.294A3.294,3.294,0,0,1,1169.506,137.726Z" fill="#fff"/>
    </g>
    <g id="Groupe_2983" data-name="Groupe 2983">
      <path id="Tracé_6115" data-name="Tracé 6115" d="M1256.391,246A41.635,41.635,0,0,0,1204.1,198.62a46.959,46.959,0,0,0-84.221,0A41.619,41.619,0,0,0,1067.6,246a41.643,41.643,0,0,0,5.794,82.881H1250.6A41.643,41.643,0,0,0,1256.391,246Z" fill="url(#linear-gradient-3)"/>
      <path id="Tracé_6116" data-name="Tracé 6116" d="M1246.109,218.192c.1,3.513-2.768,7.715-6.055,8.074-3.079.337-5.538-2.809-8.074-6.054-2.5-3.2-7.967-11.413-5.79-13.737C1229.061,203.41,1245.873,209.9,1246.109,218.192Z" fill="#fff"/>
      <circle id="Ellipse_176" data-name="Ellipse 176" cx="2.616" cy="2.616" r="2.616" transform="translate(1217.525 201.865)" fill="#fff"/>
    </g>
    <g id="Groupe_2988" data-name="Groupe 2988">
      <g id="Groupe_2985" data-name="Groupe 2985">
        <circle id="Ellipse_177" data-name="Ellipse 177" cx="29.925" cy="29.925" r="29.925" transform="translate(1087.763 231.703)" fill="url(#radial-gradient)"/>
        <g id="Groupe_2984" data-name="Groupe 2984">
          <g transform="matrix(1, 0, 0, 1, 1031.75, 131.14)" filter="url(#Ellipse_178)">
            <circle id="Ellipse_178-2" data-name="Ellipse 178" cx="25.543" cy="25.543" r="25.543" transform="translate(60.4 104.95)"/>
          </g>
          <path id="Tracé_6117" data-name="Tracé 6117" d="M1117.688,236.085a25.543,25.543,0,1,0,25.543,25.543A25.543,25.543,0,0,0,1117.688,236.085Zm0,45.928a20.385,20.385,0,1,1,20.385-20.385A20.385,20.385,0,0,1,1117.688,282.013Z" fill="#fff"/>
          <circle id="Ellipse_179" data-name="Ellipse 179" cx="7.417" cy="7.417" r="7.417" transform="translate(1117.57 250.112)" fill="#fff"/>
          <circle id="Ellipse_180" data-name="Ellipse 180" cx="2.44" cy="2.44" r="2.44" transform="translate(1105.751 268.712)" fill="#fff"/>
          <circle id="Ellipse_181" data-name="Ellipse 181" cx="3.172" cy="3.172" r="3.172" transform="translate(1114.661 272.593)" fill="#fff"/>
        </g>
      </g>
      <g id="Groupe_2987" data-name="Groupe 2987">
        <circle id="Ellipse_182" data-name="Ellipse 182" cx="29.925" cy="29.925" r="29.925" transform="translate(1169.103 231.703)" fill="url(#radial-gradient)"/>
        <g id="Groupe_2986" data-name="Groupe 2986">
          <g transform="matrix(1, 0, 0, 1, 1031.75, 131.14)" filter="url(#Ellipse_183)">
            <circle id="Ellipse_183-2" data-name="Ellipse 183" cx="25.543" cy="25.543" r="25.543" transform="translate(141.74 104.95)"/>
          </g>
          <path id="Tracé_6118" data-name="Tracé 6118" d="M1199.028,236.085a25.543,25.543,0,1,0,25.542,25.543A25.543,25.543,0,0,0,1199.028,236.085Zm0,45.928a20.385,20.385,0,1,1,20.385-20.385A20.385,20.385,0,0,1,1199.028,282.013Z" fill="#fff"/>
          <circle id="Ellipse_184" data-name="Ellipse 184" cx="7.417" cy="7.417" r="7.417" transform="translate(1198.909 250.112)" fill="#fff"/>
          <circle id="Ellipse_185" data-name="Ellipse 185" cx="2.44" cy="2.44" r="2.44" transform="translate(1187.091 268.712)" fill="#fff"/>
          <circle id="Ellipse_186" data-name="Ellipse 186" cx="3.172" cy="3.172" r="3.172" transform="translate(1196 272.593)" fill="#fff"/>
        </g>
      </g>
    </g>
  </g>
</svg>
