<svg xmlns="http://www.w3.org/2000/svg" width="39.999" height="32.844" viewBox="0 0 39.999 32.844">
  <g id="Groupe_3028" data-name="Groupe 3028" transform="translate(-437.001 -104.616)">
    <path id="Union_2" data-name="Union 2" d="M28.616,32.842c-.006-.029-.012-.057-.019-.084H13c0,.027,0,.055,0,.084H7.937A8.173,8.173,0,0,1,0,24.484a8.145,8.145,0,0,1,6.22-8.121C5.038,11.705,6.037,7.322,9.1,4.141A13.79,13.79,0,0,1,22.833.566C27.2,1.924,30.27,5.5,31.4,10.5a11.026,11.026,0,0,1,8.078,7.74,10.975,10.975,0,0,1-3.138,11.637,11.325,11.325,0,0,1-7.642,2.963Z" transform="translate(437.001 104.618)" fill="rgba(2,27,121,0.4)"/>
    <path id="Vector" d="M5.851.306,9.888,4.33a1.062,1.062,0,0,1-1.5,1.5L6.162,3.621V17.178a1.062,1.062,0,1,1-2.125,0V3.621L1.827,5.845A1.077,1.077,0,0,1,0,5.094a1.051,1.051,0,0,1,.312-.751L4.349.321A1.056,1.056,0,0,1,5.851.306Z" transform="translate(451.898 114.259)" fill="#021b79"/>
  </g>
</svg>
