<svg id="vuesax_bulk_profile-2user" data-name="vuesax/bulk/profile-2user" xmlns="http://www.w3.org/2000/svg" xmlns:xlink="http://www.w3.org/1999/xlink" width="148.441" height="148.441" viewBox="0 0 148.441 148.441">
  <defs>
    <filter id="Vector" x="24.786" y="10.87" width="61.758" height="61.696" filterUnits="userSpaceOnUse">
      <feOffset input="SourceAlpha"/>
      <feGaussianBlur stdDeviation="0.5" result="blur"/>
      <feFlood flood-color="#021b79"/>
      <feComposite operator="in" in2="blur"/>
      <feComposite in="SourceGraphic"/>
    </filter>
    <filter id="Vector-2" x="10.623" y="77.39" width="90.086" height="60.181" filterUnits="userSpaceOnUse">
      <feOffset input="SourceAlpha"/>
      <feGaussianBlur stdDeviation="0.5" result="blur-2"/>
      <feFlood flood-color="#021b79"/>
      <feComposite operator="in" in2="blur-2"/>
      <feComposite in="SourceGraphic"/>
    </filter>
  </defs>
  <g id="profile-2user" transform="translate(0 0)">
    <path id="Vector-3" data-name="Vector" d="M29.379,0a29.352,29.352,0,0,0-.742,58.7A4.989,4.989,0,0,1,30,58.7h.433A29.357,29.357,0,0,0,29.379,0Z" transform="translate(57.892 12.371)" fill="#021b79"/>
    <path id="Vector-4" data-name="Vector" d="M74.963,8.628c-17.256-11.5-45.4-11.5-62.778,0C4.33,13.885,0,21,0,28.606S4.33,43.264,12.123,48.46c8.659,5.814,20.04,8.721,31.42,8.721S66.3,54.274,74.963,48.46C82.756,43.2,87.086,36.152,87.086,28.482,87.024,20.875,82.756,13.824,74.963,8.628Z" transform="translate(43.728 78.891)" fill="#021b79"/>
    <path id="Vector-5" data-name="Vector" d="M29.379,0a29.352,29.352,0,0,0-.742,58.7A4.989,4.989,0,0,1,30,58.7h.433A29.357,29.357,0,0,0,29.379,0Z" transform="translate(26.286 12.37)" fill="#fff"/>
    <path id="Vector-6" data-name="Vector" d="M74.963,8.628c-17.256-11.5-45.4-11.5-62.778,0C4.33,13.885,0,21,0,28.606S4.33,43.264,12.123,48.46c8.659,5.814,20.04,8.721,31.42,8.721S66.3,54.274,74.963,48.46C82.756,43.2,87.086,36.152,87.086,28.482,87.024,20.875,82.756,13.824,74.963,8.628Z" transform="translate(12.123 78.89)" fill="#fff"/>
    <g transform="matrix(1, 0, 0, 1, 0, 0)" filter="url(#Vector)">
      <path id="Vector-7" data-name="Vector" d="M29.379,0a29.352,29.352,0,0,0-.742,58.7A4.989,4.989,0,0,1,30,58.7h.433A29.357,29.357,0,0,0,29.379,0Z" transform="translate(26.29 12.37)" fill="rgba(2,27,121,0.2)"/>
    </g>
    <g transform="matrix(1, 0, 0, 1, 0, 0)" filter="url(#Vector-2)">
      <path id="Vector-8" data-name="Vector" d="M74.963,8.628c-17.256-11.5-45.4-11.5-62.778,0C4.33,13.885,0,21,0,28.606S4.33,43.264,12.123,48.46c8.659,5.814,20.04,8.721,31.42,8.721S66.3,54.274,74.963,48.46C82.756,43.2,87.086,36.152,87.086,28.482,87.024,20.875,82.756,13.824,74.963,8.628Z" transform="translate(12.12 78.89)" fill="rgba(2,27,121,0.2)"/>
    </g>
    <path id="Vector-9" data-name="Vector" d="M0,0H148.441V148.441H0Z" fill="none" opacity="0"/>
  </g>
</svg>
