<svg xmlns="http://www.w3.org/2000/svg" xmlns:xlink="http://www.w3.org/1999/xlink" width="157.248" height="157.247" viewBox="0 0 157.248 157.247">
  <defs>
    <filter id="Vector" x="87.5" y="87.5" width="69.747" height="69.748" filterUnits="userSpaceOnUse">
      <feOffset input="SourceAlpha"/>
      <feGaussianBlur stdDeviation="0.5" result="blur"/>
      <feFlood flood-color="#021b79"/>
      <feComposite operator="in" in2="blur"/>
      <feComposite in="SourceGraphic"/>
    </filter>
  </defs>
  <g id="Groupe_2457" data-name="Groupe 2457" transform="translate(0 0)">
    <path id="Vector-2" data-name="Vector" d="M114.583,27.144,67.934,2a16.579,16.579,0,0,0-15.8,0L5.488,27.144a10.954,10.954,0,0,0,0,18.986L52.137,71.271a16.432,16.432,0,0,0,15.723,0L114.509,46.13A10.7,10.7,0,0,0,120,36.637,10.354,10.354,0,0,0,114.583,27.144Z" transform="translate(14.314 0)" fill="#021b79"/>
    <path id="Vector-3" data-name="Vector" d="M58.812,22.882,15.426,1.152A10.58,10.58,0,0,0,5.043,1.6,10.478,10.478,0,0,0,0,10.645V51.657A18.522,18.522,0,0,0,10.309,68.344L53.695,90a10.622,10.622,0,0,0,4.747,1.112A10.121,10.121,0,0,0,64,89.481a10.478,10.478,0,0,0,5.043-9.048V39.421A18.266,18.266,0,0,0,58.812,22.882Z" transform="translate(0 60.866)" fill="#021b79"/>
    <path id="Vector-4" data-name="Vector" d="M69.121,10.67V44.711c-.074-.074-.148-.222-.222-.3,0-.074-.074-.149-.148-.223a8.538,8.538,0,0,0-1.038-1.261c-.074-.074-.148-.222-.222-.3A32.973,32.973,0,0,0,42.941,31.807a33.318,33.318,0,0,0-28.553,50.58,31.661,31.661,0,0,0,4.524,5.859l-3.486,1.78A10.7,10.7,0,0,1,0,80.458V39.52A18.522,18.522,0,0,1,10.309,22.833L53.695,1.177a10.4,10.4,0,0,1,10.383.445A10.643,10.643,0,0,1,69.121,10.67Z" transform="translate(79.652 60.723)" fill="#021b79"/>
    <path id="Vector-5" data-name="Vector" d="M10.236,22.882,53.622,1.152a10.632,10.632,0,0,1,15.426,9.493V51.657A18.522,18.522,0,0,1,58.739,68.344L15.353,90a10.622,10.622,0,0,1-4.747,1.112,10.121,10.121,0,0,1-5.562-1.631A10.478,10.478,0,0,1,0,80.433V39.421A18.266,18.266,0,0,1,10.236,22.882Z" transform="translate(79.652 60.723)" fill="#021b79"/>
    <path id="Vector-6" data-name="Vector" d="M59.183,12.237A33.3,33.3,0,0,0,12.534,7.342,32.991,32.991,0,0,0,0,33.374,33.37,33.37,0,0,0,4.821,50.58a32.14,32.14,0,0,0,7.491,8.6h.074a33.033,33.033,0,0,0,42.941-.741,32.088,32.088,0,0,0,6.6-7.861,33.37,33.37,0,0,0,4.821-17.206A33.011,33.011,0,0,0,59.183,12.237ZM50.135,29.221l-17.8,16.464a5.657,5.657,0,0,1-3.782,1.483,5.5,5.5,0,0,1-3.931-1.632L16.39,37.3a5.559,5.559,0,0,1,7.861-7.861l4.45,4.45L42.57,21.062a5.6,5.6,0,0,1,7.861.3A5.466,5.466,0,0,1,50.135,29.221Z" transform="translate(89 88.999)" fill="#fff"/>
    <g transform="matrix(1, 0, 0, 1, 0, 0)" filter="url(#Vector)">
      <path id="Vector-7" data-name="Vector" d="M59.183,12.237A33.3,33.3,0,0,0,12.534,7.342,32.991,32.991,0,0,0,0,33.374,33.37,33.37,0,0,0,4.821,50.58a32.14,32.14,0,0,0,7.491,8.6h.074a33.033,33.033,0,0,0,42.941-.741,32.088,32.088,0,0,0,6.6-7.861,33.37,33.37,0,0,0,4.821-17.206A33.011,33.011,0,0,0,59.183,12.237ZM50.135,29.221l-17.8,16.464a5.657,5.657,0,0,1-3.782,1.483,5.5,5.5,0,0,1-3.931-1.632L16.39,37.3a5.559,5.559,0,0,1,7.861-7.861l4.45,4.45L42.57,21.062a5.6,5.6,0,0,1,7.861.3A5.466,5.466,0,0,1,50.135,29.221Z" transform="translate(89 89)" fill="rgba(2,27,121,0.2)"/>
    </g>
  </g>
</svg>
