<svg xmlns="http://www.w3.org/2000/svg" width="38" height="38" viewBox="0 0 38 38">
  <g id="vuesax_bold_microphone-2" data-name="vuesax/bold/microphone-2" transform="translate(-236 -188)">
    <g id="microphone-2" transform="translate(236 188)">
      <path id="Vector" d="M23.655.016a1.1,1.1,0,0,0-1.108,1.108v2.5a10.165,10.165,0,1,1-20.33,0V1.108A1.1,1.1,0,0,0,1.108,0,1.1,1.1,0,0,0,0,1.108v2.5A12.392,12.392,0,0,0,11.273,15.928V19.3a1.108,1.108,0,0,0,2.217,0V15.928A12.393,12.393,0,0,0,24.763,3.61v-2.5A1.119,1.119,0,0,0,23.655.016Z" transform="translate(6.618 14.424)" fill="#514a9d"/>
      <path id="Vector-2" data-name="Vector" d="M7,0A7,7,0,0,0,0,7V15.1a7,7,0,0,0,14,0V7A7,7,0,0,0,7,0ZM9.073,11a.913.913,0,0,1-.887.681,1.222,1.222,0,0,1-.238-.032,3.463,3.463,0,0,0-1.884,0A.918.918,0,0,1,5.589,9.88a5.439,5.439,0,0,1,2.85,0A.921.921,0,0,1,9.073,11Zm.839-3.072a.918.918,0,0,1-.871.6,1.1,1.1,0,0,1-.317-.047,4.978,4.978,0,0,0-3.452,0,.934.934,0,0,1-1.188-.554.911.911,0,0,1,.554-1.172,6.9,6.9,0,0,1,4.718,0A.917.917,0,0,1,9.912,7.933Z" transform="translate(12.002 3.167)" fill="#514a9d"/>
      <path id="Vector-3" data-name="Vector" d="M0,0H38V38H0Z" fill="none" opacity="0"/>
    </g>
  </g>
</svg>
