<svg xmlns="http://www.w3.org/2000/svg" width="39.999" height="37.177" viewBox="0 0 39.999 37.177">
  <g id="Groupe_3029" data-name="Groupe 3029" transform="translate(-283.032 -219.468)">
    <path id="Soustraction_2" data-name="Soustraction 2" d="M29.339,32.338H7.038a7.412,7.412,0,0,1-5.28-2.531,7.883,7.883,0,0,1,0-9.93,7.4,7.4,0,0,1,5.277-2.524h.1c-2.051-5.711-.538-9.676,1.093-12A13.171,13.171,0,0,1,18.914,0c4.94,0,10.7,2.915,12.051,11.092a10.32,10.32,0,0,1,8.528,7.459,10.345,10.345,0,0,1-2.913,10.975A10.746,10.746,0,0,1,29.339,32.338Zm-9.346-9.209a4.013,4.013,0,1,0,4.012,4.011A4.017,4.017,0,0,0,19.994,23.129Z" transform="translate(283.032 219.468)" fill="rgba(2,27,121,0.4)"/>
    <path id="Vector" d="M19.235,7.083c-1.364,0-2.146-.682-2.146-1.685a2.692,2.692,0,0,1,.4-1.344,2,2,0,0,0-.742-2.748L14.923.244A1.775,1.775,0,0,0,12.5.886l-.12.2c-.963,1.665-2.527,1.665-3.49,0l-.12-.2A1.752,1.752,0,0,0,6.358.244L4.513,1.307A2.014,2.014,0,0,0,3.49,3.052a2.05,2.05,0,0,0,.281,1A2.737,2.737,0,0,1,4.192,5.4c0,1-.8,1.685-2.166,1.685A2.029,2.029,0,0,0,0,9.089v1.885A2.029,2.029,0,0,0,2.026,12.98c1.364,0,2.166.682,2.166,1.685a2.737,2.737,0,0,1-.421,1.344,2,2,0,0,0,.742,2.748L6.358,19.82a1.752,1.752,0,0,0,2.407-.642l.12-.2c.963-1.665,2.527-1.665,3.49,0l.12.2a1.775,1.775,0,0,0,2.427.642l1.825-1.063a2.014,2.014,0,0,0,1.023-1.745,2.05,2.05,0,0,0-.281-1,2.692,2.692,0,0,1-.4-1.344c0-1,.782-1.685,2.146-1.685a2.016,2.016,0,0,0,2.026-2.006V9.089A2.016,2.016,0,0,0,19.235,7.083Zm-8.6,6.4a3.45,3.45,0,1,1,3.45-3.45A3.45,3.45,0,0,1,10.631,13.482Z" transform="translate(292.396 236.581)" fill="#021b79"/>
  </g>
</svg>
